<?xml version="1.0" encoding="UTF-8"?>
<svg xmlns="http://www.w3.org/2000/svg" version="1.1" viewBox="0 0 500 500">
  <!-- Generator: Adobe Illustrator 29.5.1, SVG Export Plug-In . SVG Version: 2.1.0 Build 141)  -->
  <defs>
    <style>
      .st0 {
        fill: #0a3d75;
      }

      .st1, .st2 {
        fill: #fff;
      }

      .st2, .st3, .st4, .st5, .st6, .st7, .st8, .st9, .st10, .st11, .st12, .st13, .st14, .st15, .st16 {
        fill-rule: evenodd;
      }

      .st3 {
        fill: #cd591c;
      }

      .st17 {
        fill: #1a73e8;
      }

      .st4 {
        fill: #a6cddd;
      }

      .st5 {
        fill: #9c9b9b;
      }

      .st18 {
        fill: #ffcf4b;
      }

      .st6 {
        fill: #e6ad3f;
      }

      .st19, .st10 {
        fill: #0f0e0e;
      }

      .st7 {
        fill: #a74618;
      }

      .st20 {
        fill: #f5ab35;
      }

      .st8 {
        fill: #d17f59;
      }

      .st9 {
        fill: #7c6052;
      }

      .st11 {
        fill: #c5c5c5;
      }

      .st21 {
        fill: #1297e0;
      }

      .st12 {
        fill: #858584;
      }

      .st13 {
        fill: #9d826e;
      }

      .st14 {
        fill: #d08b3b;
      }

      .st15 {
        fill: #d9d9d9;
      }

      .st16 {
        fill: #e9bc9d;
      }
    </style>
  </defs>
  <g id="BACKGROUND">
    <path class="st2" d="M257.55,322.82c-3.7-.79-6.72-1.65-9.16-2.49l5.85-.58s1.36.44,3.31,3.07Z"/>
    <path class="st2" d="M262.92,336.62c0,.47-.02.94-.07,1.43-.35,4.05-4.28,6.13-4.28,6.13l-18.48-23.02,5.34-.53c3.09,1.24,7.37,2.6,13.16,3.77.25.39.5.82.75,1.29,1.93,3.51,3,6.08,3.39,8.61-.4-.19-.83-.35-1.26-.52-.52-.18-1.09.09-1.29.6-.19.52.08,1.09.6,1.29.76.28,1.47.59,2.12.95Z"/>
  </g>
  <g id="OBJECTS">
    <path class="st4" d="M229.75,124.67c151.46-50.75,191.08,98.28,162.41,196.55-16.72,57.33-54.14,79.54-87.32,83.32-36,4.11-134.26-24.56-185.35-88.94-34.24-43.15-41.21-140.18,110.25-190.93Z"/>
    <path class="st15" d="M247.11,454.85c70.34,0,127.37,6.87,127.37,15.35,0,10.33-254.73,10.17-254.73,0,0-8.48,57.02-15.35,127.37-15.35Z"/>
    <g>
      <path class="st10" d="M292.32,164.94c.51.73.96,1.52,1.35,2.37,3.3,7.28.62,16.21-3.73,22.45-2.47,3.55-5.83,6.73-9.71,8.74,2.02.66,4.04,1.34,6.03,2.07,3.34,1.22,6.6,2.63,9.54,4.66,1.88,1.3,3.52,2.79,5,4.42.22.05.43.1.64.16,3.7.97,5.73,2.98,8.2,5.75,1.95,2.19,3.36,5.28,4.28,8.04.31.92.6,1.94.85,3.01.08.13.14.27.19.42,1.56,4.46,2.59,9.44,3.16,14.26.17.39.35.78.52,1.17,2.98,6.63,5.94,13.27,8.83,19.93,1.52,3.5,3.56,6.73,5,10.28.72,1.78.89,3.74,1.47,5.56.04.12.07.24.11.36,3.01,2.97,7.1,7.82,7.62,11.98.39,3.13.46,6.39.33,9.54l4.16,10.13c.25.61.32,1.23.2,1.88-.27,1.46-.95,3.04-1.64,4.35-.68,1.29-1.49,2.51-2.4,3.66-.25,4.69-1.84,9.21-3.93,13.41-3.03,6.11-7.06,11.78-11.07,17.28-4.83,6.64-9.8,13.2-15.1,19.47-1.11,1.32-2.22,2.63-3.38,3.91.44.74.87,1.48,1.29,2.23,1.86,3.26,3.6,6.58,5.14,10,1.65,3.65,3.3,7.84,3.78,11.82.25,2.04.64,4.07,1.04,6.08.47,2.35.99,4.68,1.54,7.02.81,0,1.6.21,2.31.73.54.39.96.88,1.25,1.48.35.71.47,1.41.56,2.13.39.6.5,1.36.24,2.08.13,1.7,0,3.46.36,5.1.35,1.59.86,3.14,1.29,4.71.46,1.68.77,3.35.24,5.06-.16.51-.38.97-.65,1.39.16.4.31.8.45,1.18.65,1.77,1.18,3.59,1.63,5.42.57.46.92,1.17.88,1.95-.02.32-.1.62-.22.89.12.56.24,1.13.35,1.69.39,1.93.74,3.88,1.05,5.82,2.67.26,4.76,2.52,4.76,5.25v4.55c0,2.91-2.37,5.28-5.28,5.28h-141.58c-2.91,0-5.28-2.37-5.28-5.28v-3.53c-.09-.24-.13-.5-.12-.76,0-.22.05-.43.13-.63.15-2.14,1.59-3.94,3.54-4.62.02-.12.04-.24.06-.36.91-5.18,3.58-10.03,7.23-13.78,4.47-4.6,10.24-7.45,16.53-8.6,5.78-1.06,11.71-.66,17.44.63.21-1.3.91-2.39,1.7-3.54.06-.09.14-.2.22-.31-.22-.3-.42-.61-.62-.93-.12-.1-.23-.2-.35-.3-.63-.55-.9-1.37-.78-2.15-.59-1.91-.51-3.93.89-5.68.28-.36.6-.67.93-.93-2.42-6.72-4.74-13.48-6.89-20.3-2.07-6.56-4.03-13.19-5.51-19.92-.92-4.21-2.21-10.66-1.25-14.86.42-1.83,1.13-3.61,1.89-5.32.95-2.15,2.03-4.24,3.15-6.31,2.68-4.94,5.63-9.73,8.64-14.46,2.01-3.15,4.05-6.27,6.13-9.37-.47-.3-.93-.63-1.35-.98-1-.83-1.43-2.11-1.12-3.38.77-3.15,1.7-9.1,1.07-12.64-2.09-.12-4.18-.29-6.25-.48-5.24-.49-10.46-1.17-15.66-1.99,1.1,2.38,1.91,4.92,2.46,7.57.8,3.86,1.02,7.83.85,11.76-.15,3.48-1.92,6.57-5.31,7.76-2.53.89-5.42.46-7.65-1-2.53-1.66-3.94-4.48-3.81-7.49.11-2.55,0-5.16-.51-7.67-.59-2.87-1.76-5.66-3.97-7.66-1.1-1-2.3-1.89-3.59-2.63-.45-.26-.91-.49-1.38-.7-.45.45-.91.88-1.4,1.28-3.1,2.56-6.47,3.19-10.41,2.62-.34-.05-.7-.17-1.04-.28-.38.51-.73,1.04-1.05,1.59-4.66,8.13-4.33,21.03-3.8,30.16.07,1.16.16,2.32.16,3.48v119.16c0,1.85-1.51,3.36-3.36,3.36h-10.07c-1.85,0-3.36-1.51-3.36-3.36v-119.16c0-.85-.06-1.69-.11-2.54-.55-9.52-.63-19.16,1.7-28.47.13-.52.27-1.03.41-1.54-.79-.04-1.56-.24-2.29-.65-.64-.37-1.18-.86-1.58-1.48-2.06-3.17,0-8.42,1.31-11.57,1.3-3.14,2.67-6.26,4.65-9.03,2.19-3.07,4.9-5.37,8.16-7.23.87-.49,1.77-.95,2.69-1.38-.2-2.82.92-5.4,3.49-6.99.62-.38,1.31-.7,2.01-.93.7-1.79,1.82-3.43,3.67-4.17,1.28-.51,2.61-.45,3.88-.09.76-1.51,1.98-2.74,3.67-3.22.87-.25,1.77-.3,2.66-.19.02-.41.12-.82.31-1.21.45-.91,1.09-1.72,1.76-2.48.75-.86,1.54-1.69,2.29-2.55,1.25-1.45,2.51-2.88,3.77-4.32,2.2-2.5,4.44-5,6.57-7.56,1.01-1.21,1.96-2.51,2.92-3.76,1.47-1.91,2.93-3.82,4.42-5.72.59-.76,1.19-1.51,1.8-2.26-5.68-.11-11.32-1-16.71-2.86-6.49-2.25-12.28-5.83-17.18-10.64-10.21-10.03-15.35-24.09-16.81-38.11-1.01-9.7-.32-19.71,1.86-29.34-.77-1.93-1.4-3.92-1.95-5.9-2.17-7.8-2.55-16.16.46-23.8,2.41-6.11,6.76-11.1,12.39-14.46,4.94-2.95,10.85-4.61,16.62-4.41,1.1.04,2.2.15,3.29.33,2.06-1.29,4.21-2.44,6.46-3.43,7.72-3.4,16.14-4.69,24.54-4.11,11.13.77,23.08,4.99,32.38,11.79.89-.38,1.81-.66,2.71-.88,3.83-.9,8.06-.72,11.89.1,10.52,2.27,18.79,9.33,22.89,19.25.57,1.37.19,2.9-.94,3.85-.05.04-.11.09-.17.13.6,1.79,1.07,3.63,1.39,5.5,1.45,8.41-.2,16.76-3.92,24.38-.46.95-.95,1.87-1.46,2.8h0ZM273.61,421.6c.13.41.15.83.07,1.22.12.93.28,1.85.35,2.79.05.73.18,1.44.33,2.16.11.5.19.96.21,1.42,2.45.16,4.9.51,7.31,1.02.02-.05.04-.1.06-.15.17-.39.98-1.95,1.03-2.34-.15-.38-.65-.98-.89-1.29-1.13-1.4-2.36-2.75-2.72-4.58-.3-1.53-.12-3.08.89-4.31.05-.06.1-.12.15-.18-2.29-4.11-4.54-8.25-6.72-12.42-1.32-2.53-2.62-5.07-3.89-7.63-.04,1.46-.02,2.92.01,4.38.05,2.58.16,5.17.29,7.75.08,1.47.16,2.93.25,4.4,1.13.28,2.17.85,2.81,1.74.31.43.53.91.66,1.43.24.95.16,1.91.01,2.87-.08.55-.2,1.15-.23,1.72Z"/>
      <g>
        <g>
          <path class="st10" d="M235.25,432.44c5.19-1.27,10.57-2.36,15.83-3.19,4.11-.65,13.51-2.07,17.22-.04,2.17,1.19,3.51,4.28,4.32,6.5,1.14,3.12,1.93,6.5,2.59,9.76.74,3.69,1.34,7.41,1.83,11.14.23,1.72.44,3.45.62,5.17.06.59-.12,1.11-.51,1.55-.4.44-.9.66-1.49.66h-82.68c-.63,0-1.17-.26-1.57-.75-2.7-3.35-3.17-7.97-2.45-12.08.86-4.91,3.41-9.52,6.87-13.08,4.28-4.4,9.8-7.11,15.81-8.21,7.9-1.45,16.1-.06,23.61,2.56Z"/>
          <path class="st9" d="M235.15,434.54c-36.49-13.08-50.45,17.16-42.17,27.45h82.68s-2.77-27.96-8.32-31.01c-5.55-3.05-32.18,3.56-32.18,3.56Z"/>
          <path class="st10" d="M235.1,434.66c-11.79-4.22-21.21-3.92-28.28-1.23-4.87,1.85-8.62,4.84-11.27,8.25-2.64,3.41-4.18,7.26-4.62,10.83-.44,3.64.26,7,2.11,9.34h82.46c-.22-2.15-2.98-27.86-8.24-30.76-5.5-3.02-32.01,3.55-32.09,3.57h-.04s-.04,0-.04,0h0ZM206.72,433.18c7.12-2.71,16.59-3.02,28.43,1.21,1.08-.27,26.75-6.55,32.24-3.54,5.61,3.08,8.38,31.03,8.39,31.11l.02.15h-82.89l-.04-.05c-1.93-2.39-2.66-5.85-2.21-9.59.44-3.62,2-7.51,4.67-10.96,2.68-3.45,6.47-6.47,11.39-8.34Z"/>
          <path class="st10" d="M262.93,371c1.56,4.14,2.96,8.42,4.04,12.69.92,3.66,1.79,8.01,1.57,11.78-.12,2.07-.1,4.18-.06,6.24.05,2.6.16,5.2.29,7.79.31,5.94.72,11.91,1.24,17.84.05.59-.13,1.11-.53,1.55-.4.43-.91.65-1.5.65l-29.19-.32c-.84,0-1.55-.5-1.86-1.28-1.34-3.45-2.63-6.94-3.9-10.42-2.76-7.57-5.4-15.19-7.82-22.87-2.05-6.5-4.02-13.14-5.48-19.8-.85-3.88-2.15-10.37-1.26-14.27.39-1.72,1.1-3.47,1.81-5.08.94-2.11,2-4.18,3.11-6.21,2.66-4.89,5.6-9.68,8.6-14.38,3.79-5.94,7.73-11.8,11.74-17.59,1.85-2.67,3.71-5.33,5.61-7.96.35-.49.85-.77,1.45-.83l50.35-4.7c.85-.08,1.62.35,2,1.12,2.16,4.39,3.36,9.02,2.84,13.93-.58,5.45-3.18,10.31-6.35,14.68-4.02,5.53-9.13,10.65-14.01,15.43-1.31,1.28-2.64,2.54-3.96,3.81-2.64,2.54-5.28,5.08-7.91,7.63-2.55,2.46-5.09,4.93-7.62,7.41-.89.88-1.79,1.76-2.67,2.65-.16.16-.34.34-.52.52Z"/>
          <path class="st5" d="M301.33,305.83c7.4,15.04-.72,25.66-17.13,41.71-.85.83-23.7,22.72-23.58,23.03,1.67,4.32,6.36,17.21,5.91,24.78-.54,9.19,1.48,32.17,1.48,32.17l-29.19-.32s-21.1-54.23-18.37-66.18c2.73-11.95,30.53-50.49,30.53-50.49l50.35-4.7Z"/>
          <path class="st12" d="M297.93,332.45c-3.39,4.65-8.07,9.55-13.73,15.09-.85.83-23.7,22.72-23.58,23.03,1.67,4.32,6.36,17.21,5.91,24.78-.54,9.19,1.48,32.17,1.48,32.17l-8.57-.09c-.35-1.53-.52-3.22-.43-5.09.57-12.51-9.38-43.21-8.81-47.76.57-4.55,17.06-26.16,14.78-30.71-2.06-4.12-16.47-8.7-26.35-15.44,3.91-5.88,7.54-11.1,9.84-14.37l51.19,3.94s-.74,6.23-1.73,14.45Z"/>
          <path class="st10" d="M307.18,374.07c.61,1.01,1.21,2.04,1.79,3.07,1.83,3.21,3.57,6.52,5.09,9.89,1.56,3.47,3.22,7.65,3.68,11.43.25,2.06.65,4.15,1.06,6.18.52,2.56,1.09,5.11,1.69,7.65,1.36,5.81,2.84,11.63,4.41,17.39.16.58.07,1.14-.26,1.64-.33.5-.81.81-1.4.89l-28.85,4.07c-.82.12-1.58-.25-2-.95-1.94-3.2-3.83-6.43-5.7-9.67-4.07-7.03-8.03-14.14-11.79-21.34-3.19-6.1-6.32-12.37-8.96-18.74-1.52-3.68-3.98-9.9-3.8-13.91.08-1.75.46-3.58.88-5.28.55-2.22,1.23-4.42,1.95-6.59,1.74-5.22,3.79-10.38,5.9-15.46,2.68-6.44,5.52-12.82,8.44-19.15,1.35-2.91,2.71-5.83,4.11-8.71.27-.56.73-.92,1.32-1.07l48.83-12.2c.81-.2,1.62.09,2.12.77,2.99,4.11,5.04,8.63,5.31,13.76.28,5.36-1.44,10.5-3.79,15.24-2.96,5.97-7.04,11.71-10.95,17.09-4.8,6.6-9.77,13.16-15.04,19.4-1.28,1.52-2.63,3.12-4.03,4.6Z"/>
          <path class="st5" d="M334.05,305.16c9.99,13.73,3.88,25.42-9.43,43.72-13.32,18.3-19.98,24.91-19.98,24.91,0,0,9.99,15.76,11.1,24.91,1.11,9.15,7.21,31.52,7.21,31.52l-28.85,4.07s-30.52-50.33-29.96-62.53c.55-12.2,21.08-54.39,21.08-54.39l48.83-12.2Z"/>
          <path class="st12" d="M334.05,305.16c9.99,13.73,3.88,25.42-9.43,43.72-13.32,18.3-19.98,24.91-19.98,24.91,0,0,9.99,15.76,11.1,24.91.97,7.99,5.74,26.05,6.94,30.51-5.14.26-9.33-1.92-10.51-6.86-3.13-13.08-19.9-47.48-18.48-49.75,1.42-2.28,20.47-34.12,20.47-34.12,0,0-20.98,3.5-38.03-1.33,4.75-10.84,9.1-19.78,9.1-19.78l48.83-12.2Z"/>
          <path class="st10" d="M222.35,228.59c5.72-1.99,13.02-3.32,19.12,2.34,4.59,4.26,6.05,11.04,6.54,16.45.65,7.08-.03,14.45-1,21.12-.94,6.53-2.28,12.94-3.8,19.22-.96,3.98-2.05,7.88-3.07,11.82-.15.59-.55.98-1.13,1.11-.58.14-1.19-.02-1.76-.45l-44.11-33.39c-.93-.71-1.32-1.94-.89-2.81.73-1.49,2.16-2.77,3.87-4.76,3.4-3.96,7.93-8.98,10.35-11.9,2.53-3.06,13.26-17.85,15.87-18.76Z"/>
          <path class="st6" d="M222.27,230.93c-14.6,19.8-28.17,34.31-28.17,34.31l44.11,33.39c2.72-10.5,23.91-81.59-15.94-67.71Z"/>
          <path class="st14" d="M199.35,269.22l37.89,28.68c.41-.02.81-.05,1.18-.09,1.02-3.82,3.43-12.43,5.32-22.31-1.9-12.49-6.81-33.98-9.69-46.15-1.85-.3-3.94-.28-6.32.13-.46,1.06-.98,2.24-1.55,3.55-4.84,11.13-19.05,27.54-26.82,36.18Z"/>
          <path class="st10" d="M157.78,463.3v-119.16c0-.87-.06-1.75-.11-2.62-.54-9.39-.64-18.87,1.66-28.07.92-3.69,2.24-7.32,4.14-10.63,1.04-1.82,2.29-3.51,3.7-5.07,3.78-4.18,8.73-7.22,14.27-8.38,6.42-1.34,12.72-.04,18.38,3.2,2.25,1.29,4.33,2.87,6.25,4.61,4.73,4.27,7.47,9.82,8.74,15.99.77,3.75.98,7.61.82,11.43-.12,2.93-1.55,5.54-4.41,6.55-2.13.75-4.58.38-6.46-.86-2.15-1.41-3.31-3.75-3.2-6.31.12-2.66,0-5.38-.53-7.99-.65-3.17-1.96-6.19-4.39-8.39-1.17-1.06-2.45-2.01-3.82-2.8-2.6-1.49-5.53-2.27-8.51-1.65-2.62.54-4.94,2.06-6.72,4.02-.73.8-1.35,1.7-1.89,2.64-4.82,8.42-4.52,21.51-3.98,30.91.06,1.12.16,2.28.16,3.4v119.16c0,1.11-.9,2.02-2.01,2.02h-10.07c-1.11,0-2.02-.9-2.02-2.02Z"/>
          <path class="st9" d="M159.8,463.3v-119.16c0-.73-.05-1.61-.12-2.73-.46-7.87-1.47-25.34,5.54-37.57.94-1.64,2.09-3.22,3.44-4.72,3.44-3.8,7.99-6.67,13.19-7.76,5.26-1.1,11.09-.39,16.96,2.97,1.93,1.11,3.91,2.54,5.9,4.35,4.51,4.08,6.97,9.33,8.12,14.91.75,3.62.94,7.35.79,10.94-.31,7.49-10.33,5.93-10.05-.44.12-2.86-.01-5.77-.57-8.49-.75-3.65-2.28-7.01-5.01-9.48-1.36-1.23-2.76-2.25-4.17-3.05-3.56-2.04-6.95-2.49-9.92-1.87-3.03.63-5.73,2.35-7.8,4.65-.79.87-1.51,1.88-2.14,2.99-5.54,9.66-4.64,25.08-4.24,32.03.09,1.5.16,2.68.16,3.28v119.16h-10.07Z"/>
          <path class="st10" d="M333.77,278.8c2.96,2.9,7.07,7.75,7.58,11.85.39,3.14.46,6.4.33,9.56l4.18,10.2c.23.55.28,1.11.18,1.7-.26,1.43-.93,2.97-1.61,4.25-1.67,3.17-4.12,5.91-6.89,8.17-11.13,9.06-28.28,11.14-42.19,11.14-9.59,0-19.22-.51-28.71-1.92-6.21-.92-12.42-2.23-18.38-4.22-3.18-1.06-6.35-2.31-9.29-3.93-1.06-.58-2.18-1.23-3.12-2-.9-.75-1.29-1.9-1.01-3.04.85-3.48,1.88-10.22.87-13.65-4.03-13.68-7.51-27.58-9.94-41.64-1.06-6.1-1.93-12.25-2.4-18.43-.1-1.31-.1-2.68-.1-3.99,0-2.02.05-4.05.17-6.06.14-2.28.35-4.71.85-6.94.32-1.41.95-3.76,2.56-4.18.19-.05.37-.06.53-.02-.29-1.23-.54-2.48-.72-3.71-.25-1.71-.44-4.02.42-5.59,5.98-10.93,16.02-17.19,28.11-19.43,4.04-.75,8.19-1.03,12.29-.88,1.78.06,3.58.17,5.33.47.16.02.31.06.46.11,4.29,1.43,8.62,2.74,12.88,4.29,3.31,1.21,6.55,2.61,9.46,4.62,4.6,3.18,7.79,7.54,10.6,12.29,1.99,3.36,3.75,6.84,5.45,10.35,2.32,4.78,4.51,9.62,6.69,14.46,2.98,6.63,5.94,13.27,8.83,19.93,1.52,3.5,3.56,6.72,4.99,10.28.71,1.77.89,3.73,1.46,5.54.05.15.09.29.13.44Z"/>
          <path class="st10" d="M332.86,279.32c2.95,2.85,7.01,7.63,7.48,11.44.38,3.08.45,6.48.31,9.61l4.27,10.4c.15.37.19.73.12,1.13-.24,1.29-.9,2.81-1.51,3.96-1.61,3.05-3.97,5.69-6.64,7.86-10.95,8.91-27.98,10.91-41.55,10.91-9.52,0-19.14-.51-28.56-1.91-6.13-.91-12.32-2.22-18.21-4.18-3.1-1.03-6.25-2.28-9.12-3.85-.96-.53-2.11-1.19-2.96-1.89-.61-.5-.86-1.26-.67-2.03.89-3.65,1.92-10.55.86-14.17-4-13.59-7.5-27.57-9.92-41.53-.87-5.01-1.87-11.53-2.39-18.33-.24-3.1-.31-19.32,2.74-20.12,1.34-.35,3.73,14.18,3.87,12.31.44-5.65-5.2-18.15-3.02-22.13,5.85-10.68,15.64-16.74,27.41-18.92,3.96-.73,8.05-1.01,12.08-.87,1.69.06,3.53.18,5.2.46.11.02.2.04.3.08,4.27,1.42,8.62,2.74,12.85,4.28,3.23,1.18,6.39,2.54,9.24,4.51,4.48,3.1,7.57,7.34,10.31,11.98,1.97,3.32,3.73,6.8,5.41,10.27,2.31,4.77,4.51,9.6,6.68,14.44,2.98,6.62,5.93,13.26,8.82,19.92,1.58,3.64,3.5,6.57,4.98,10.25.62,1.55.93,3.88,1.43,5.47.07.22.13.44.19.66Z"/>
          <path class="st3" d="M272.32,199.46c13.23,4.41,19.77,5.86,25.54,11.95,4.65,4.9,10.23,6.22,17,21.08,1.17,2.56-.81,8.45,1.65,13.38,16.22,32.62,14.35,34.19,14.35,34.32,0,0,6.94,6.38,7.49,10.82.55,4.44.28,9.71.28,9.71l4.44,10.82s-3.88,21.09-47.72,21.09c-22.68,0-37.31-3.05-46.14-5.99-8.23-2.74-11.43-5.39-11.43-5.39,0,0,2.4-9.89.83-15.22-5.91-20.07-18.96-69.85-8.88-88.27,12.76-23.3,42.59-18.31,42.59-18.31Z"/>
          <path class="st7" d="M316.03,244.77c.11.3.24.6.37.9l-5.38,8.37-3.41,21.32s-7.68,16.49-11.09,19.05c-3.41,2.56-10.52-.28-10.52-.28,0,0-7.39,11.94-31.84,17.06-6.01,1.26-10.99,1.54-15.08,1.24.13-2.28.05-4.59-.48-6.38-2.51-8.5-6.29-22.33-9.05-36.85,3.79,2.93,8.56,3.44,13.24,2.75,11.66-1.7,25.87-14.21,25.87-14.21l46.06-11.66,1.31-1.31Z"/>
          <path class="st10" d="M195.56,261.41c-.33-.16-.48-.56-.32-.89.16-.33.56-.48.89-.32,5.96,2.83,12.97,7.12,19.36,12.53,5.22,4.41,10.04,9.57,13.54,15.29.19.32.09.73-.22.92-.32.19-.73.09-.92-.22-3.42-5.59-8.14-10.64-13.26-14.97-6.3-5.32-13.2-9.55-19.07-12.34Z"/>
          <g>
            <path class="st18" d="M244.51,318c-1.35,0-2.45-1.1-2.45-2.45v-4.98h-5.66v4.98c0,1.35-1.1,2.45-2.45,2.45s-2.45-1.1-2.45-2.45v-7.42c0-1.35,1.1-2.45,2.45-2.45h10.55c1.35,0,2.45,1.1,2.45,2.45v7.42c0,1.35-1.1,2.45-2.45,2.45Z"/>
            <path class="st18" d="M239.24,361.67c-13.02,0-23.62-10.6-23.62-23.62s10.6-23.62,23.62-23.62,23.62,10.6,23.62,23.62-10.6,23.62-23.62,23.62Z"/>
            <circle class="st20" cx="239.23" cy="338.05" r="17.5" transform="translate(-165.06 427.79) rotate(-67.23)"/>
            <polygon class="st18" points="244.5 330.65 244.5 326.5 233.97 326.5 233.97 330.65 233.97 330.65 237.16 330.65 237.16 345.45 233.97 345.45 233.97 349.6 244.5 349.6 244.5 345.45 241.31 345.45 241.31 330.65 244.5 330.65"/>
            <path class="st21" d="M239.33,313.02c-1.1,0-2.07-.74-2.36-1.81l-20.47-76.01c-.35-1.3.42-2.65,1.73-3,1.31-.35,2.65.42,3,1.73l17.92,66.55,26.79-100.52c.3-1.32,1.61-2.13,2.93-1.84,1.32.3,2.14,1.62,1.83,2.93l-28.99,110.06c-.25,1.09-1.22,1.88-2.34,1.9h-.05Z"/>
          </g>
          <path class="st10" d="M165.69,463.48c0,.37-.3.67-.67.67s-.67-.3-.67-.67v-130.05c-.13-1.24-2.55-26.87,11.51-35.77,2.04-1.29,4.08-2.18,6.09-2.74,5.02-1.38,9.8-.63,13.86,1.28,4.04,1.91,7.35,4.98,9.43,8.27.92,1.45,1.6,2.95,2,4.41,2.52,9.16,1.98,21.67,1.98,21.7-.01.37-.33.66-.69.64-.37-.01-.66-.33-.64-.69,0-.04.53-12.34-1.93-21.3-.37-1.33-.99-2.71-1.84-4.05-1.96-3.09-5.07-5.98-8.87-7.77-3.79-1.79-8.26-2.49-12.93-1.21-1.88.52-3.81,1.36-5.73,2.58-13.37,8.46-11.01,33.29-10.89,34.5,0,.04.01.08.01.12v130.07Z"/>
          <path class="st10" d="M177.38,308.41c-1.82,1.62-4.49,2.95-6.83,1.63-.38-.21-.71-.48-1-.79-1.69.83-3.55,1.02-5.27-.03-.08-.05-.16-.1-.24-.15-.74.79-1.62,1.47-2.65,1.77-1.67.49-3.51.71-5.09-.19-4.25-2.42-1.53-9.24-.13-12.64,1.29-3.11,2.65-6.21,4.62-8.97,2.16-3.03,4.83-5.3,8.06-7.13,4.28-2.44,9.2-3.98,13.96-5.19,4.42-1.12,8.99-1.75,13.51-2.31,5.57-.68,11.16-1.17,16.76-1.58,8.26-.61,16.53-1.05,24.81-1.38,3.21-.13,6.42-.25,9.63-.33,5.93-10.57,11.85-21.14,17.77-31.71.64-1.14,1.88-1.78,3.17-1.6,1.98.28,3.95.7,5.89,1.15,4.12.97,8.22,2.22,12.09,3.95,5.25,2.35,11.01,6.04,12.89,11.79,1.06,3.22.7,6.51-.58,9.62-7.62,18.59-27.6,40.96-48.66,43.02-6.85.67-13.9.3-20.74-.33-7.63-.71-15.22-1.84-22.76-3.2-2.12-.39-4.24-.82-6.36-1.25-1.97-.4-3.94-.81-5.9-1.24-.83.6-1.56,1.37-2.26,2.11-.95,1-1.87,2.01-2.93,2.89-3.03,2.49-6.31,3.11-10.15,2.55-.41-.06-1.18-.38-1.63-.45Z"/>
          <path class="st10" d="M194.14,300.23c-4.05,2.65-5.94,8.93-14.99,7.63-.48-.07-1.76-.64-2.2-.42-1.54,1.45-3.91,2.85-5.9,1.72-.56-.31-.94-.75-1.19-1.24-1.58,1.01-3.4,1.44-5.05.44-.34-.21-.62-.47-.84-.76-.82,1.05-1.76,1.94-2.85,2.26-1.43.42-3.01.64-4.31-.1-3.54-2.02-.9-8.48.3-11.38,1.25-3.02,2.58-6.07,4.51-8.77,2.08-2.91,4.64-5.08,7.73-6.84,4.19-2.39,9.12-3.93,13.71-5.09,4.34-1.1,8.98-1.74,13.38-2.28,5.56-.68,11.14-1.17,16.71-1.58,8.25-.61,16.52-1.04,24.77-1.37,3.39-.14,6.79-.26,10.18-.35,6.02-10.73,12.03-21.47,18.05-32.21.44-.79,1.28-1.22,2.15-1.09,1.94.28,3.91.69,5.8,1.14,4.06.95,8.14,2.2,11.91,3.89,4.97,2.22,10.56,5.75,12.35,11.18.96,2.94.66,5.97-.55,8.92-7.51,18.34-27.24,40.38-47.83,42.4-6.74.66-13.88.28-20.54-.33-7.61-.71-15.2-1.83-22.68-3.19-3.16-.57-9.5-1.89-12.65-2.58Z"/>
          <path class="st16" d="M267.92,240.8c-9.95,17.76-18.66,33.29-18.66,33.29,0,0-48.34,1.11-65.81,5.55-17.47,4.44-20.58,9.99-24.48,19.42-3.9,9.43-1.14,9.71,1.68,8.88.64-.19,1.29-.87,1.94-1.78-.09-.23-.09-.49,0-.73,2.66-6.66,6.38-12.11,6.39-12.13.31-.46.94-.58,1.4-.27.46.31.58.94.27,1.4,0,.02-2.95,4.33-5.4,9.88-.09,1.01.04,1.94.68,2.33.86.52,1.82.27,2.71-.25,2.63-6.36,6.11-11.46,6.12-11.48.31-.46.94-.58,1.4-.27.46.31.58.94.27,1.4,0,.01-2.53,3.71-4.85,8.67-.66,3.23,1.35,3.67,3.72,1.61,2.77-6.18,6.27-11.07,6.28-11.08.32-.45.95-.56,1.4-.24.45.32.56.95.24,1.4,0,.01-2.8,3.9-5.31,9.06.85.11,1.56.42,1.64.43,5.78.83,12.66-7.26,12.66-7.26,0,0,37.9,7.67,57.72,5.73,19.81-1.94,38.88-23.58,46.04-41.06,7.16-17.48-28.05-22.47-28.05-22.47Z"/>
          <path class="st8" d="M257.08,260.13l-4.59,8.19c9.56,1.82,15.55,5.79,17.9,11.22,2.65,6.13-14.45,17.15-30.16,18.39-15.71,1.24-39.34-1.78-43.11-1.07-.85.16-2.11.92-3.53,2,6.95,1.34,38.77,7.18,56.35,5.46,14.83-1.45,29.24-13.94,38.55-27.46-.36-4.18-1.02-7.08-2.1-7.54-3.41-1.48-18.56-12-29.3-9.2Z"/>
          <path class="st19" d="M189.3,452.35h87.71c2.17,0,3.94,1.76,3.94,3.94v4.55c0,2.17-1.76,3.94-3.94,3.94h-87.71c-2.17,0-3.94-1.76-3.94-3.94v-4.55c0-2.17,1.76-3.93,3.93-3.93Z"/>
          <path class="st1" d="M189.3,454.36h87.71c1.06,0,1.92.86,1.92,1.92v4.55c0,1.06-.86,1.92-1.92,1.92h-87.71c-1.06,0-1.92-.86-1.92-1.92v-4.55c0-1.06.86-1.92,1.92-1.92Z"/>
          <path class="st10" d="M189.3,454.22h87.71c.56,0,1.08.23,1.45.61.37.37.6.89.6,1.45v4.55c0,.57-.23,1.08-.6,1.45-.37.37-.89.6-1.45.6h-87.71c-.57,0-1.08-.23-1.45-.6-.37-.37-.6-.89-.6-1.45v-4.55c0-.56.23-1.08.6-1.45.37-.37.89-.61,1.45-.61h0ZM277.01,454.5h-87.71c-.49,0-.94.2-1.26.52-.32.33-.52.77-.52,1.26v4.55c0,.49.2.94.52,1.26.32.32.77.52,1.26.52h87.71c.49,0,.94-.2,1.26-.52.32-.33.53-.77.53-1.26v-4.55c0-.49-.2-.94-.53-1.26-.32-.32-.77-.52-1.26-.52Z"/>
          <path class="st10" d="M177.38,272.85c.62-1.72,1.64-3.38,3.41-4.09,1.32-.53,2.7-.36,3.99.11.65-1.57,1.8-2.92,3.5-3.4,1.49-.43,3.09-.21,4.5.41.01-.01.02-.02.03-.04,1.85-1.98,4.36-1.65,6.52-.41,2.51,1.44,4.78,5.01,6.1,7.54,1.76,3.38,4.87,10.87.99,13.78-1.68,1.27-3.5,1.1-5.16.18-.38,1-1.04,1.83-2.03,2.39-2.23,1.28-4.35-.08-5.9-1.73-.55,1.34-1.44,2.5-2.82,3.12-1.8.81-3.69.27-5.23-.83-.01,0-.02-.02-.04-.03-.51,1.61-1.45,3.18-3.05,3.8-.59.23-1.2.31-1.83.22-4.15-.59-6.88-8.54-8.02-12-.03-.07-.04-.15-.06-.22-.74-3.14.14-6.11,2.94-7.85.66-.41,1.42-.74,2.17-.96Z"/>
          <path class="st10" d="M193.06,286.26c-.45,1.7-1.31,3.16-2.83,3.85-1.55.7-3.2.21-4.57-.76-.28-.2-.55-.42-.81-.65-.4,1.88-1.3,3.73-2.91,4.35-4.55,1.76-7.85-7.97-8.97-11.36-.02-.06-.03-.11-.05-.17-.73-3.04.24-5.64,2.64-7.13.67-.42,1.51-.77,2.34-.98.58-1.75,1.52-3.37,3.14-4.02,1.35-.54,2.79-.23,4.13.37.54-1.72,1.64-3.16,3.29-3.64,1.45-.42,3.09-.14,4.5.6.11-.15.22-.29.34-.41,1.64-1.76,3.85-1.34,5.69-.28,2.33,1.33,4.53,4.76,5.84,7.27,1.56,2.99,4.68,10.31,1.18,12.94-1.71,1.28-3.53.84-5.16-.33-.22,1.18-.82,2.2-1.96,2.86-2.08,1.19-4.16-.37-5.82-2.49Z"/>
          <path class="st16" d="M174.52,281.01c6.21,18.88,10.44,7.03,8.43,2.3,4.62,8.3,9.72,6.21,8.75-2.66,0,0,3.69,7.98,6.43,6.4,2.74-1.57-.21-7.25-.21-7.25,0,0,4.11,7.13,7.17,4.83,3.06-2.3-2.85-14.63-6.85-16.92-4.01-2.3-4.64,1.69-4.64,1.69,0,0-2.21-2.18-4.74-1.45-2.53.73-2.43,4.59-2.43,4.59-3.6-2.26-6.01-2.53-7.27,2.54,0,0-5.9.6-4.64,5.92Z"/>
          <path class="st10" d="M312.17,230.96c-.06.26-.12.52-.19.68-.81,1.99-.76,4.62-.21,6.67,2.06,7.63.12,16.19-2.44,23.47-1.97,5.6-4.49,10.96-7.01,16.32-1.7,3.62-3.47,7.22-5.41,10.71-.51.91-1.41,1.46-2.45,1.53-.53.04-1.67-.55-2.15-.78-1.08-.51-2.15-1.04-3.21-1.57-1.1-.55-2.19-1.11-3.28-1.67-.35-.18-1.59-.75-1.82-1.05-.17-.21-.28-.46-.32-.73-.14-.92.54-1.66,1.11-2.29.1-.12.38-.42.53-.63-3.47-4.13-6.66-7.73-11.38-10.53-6.14-3.64-13-4.85-20.05-5.19-.98-.05-1.84-.51-2.39-1.33-.55-.82-.64-1.8-.24-2.71,1.41-3.21,2.94-6.37,4.51-9.5,3.32-6.64,6.89-13.17,10.86-19.44,5.04-7.96,14.52-21.7,24.32-23.55.13-.03.27-.04.4-.05,3.34-.19,6.78-.02,10.02.83,3.63.95,5.61,2.93,8.03,5.65,1.91,2.15,3.31,5.21,4.21,7.92,1.01,3.03,1.93,7.28,1.44,10.47-.08.55-.41,1.04-1.06,1.04-1.14-.02-1.07-1.41-1.16-2.16-.03-.24-.07-.58-.15-.8-.08-.23-.28-.81-.51-1.3Z"/>
          <path class="st10" d="M252.17,262.26c1.39-3.18,2.93-6.35,4.49-9.46,3.29-6.58,6.86-13.1,10.81-19.35,4.64-7.34,14.14-21.3,23.66-23.1.09-.02.18-.03.27-.03,3.28-.19,6.62-.01,9.71.8,3.34.87,5.14,2.66,7.54,5.35,3.68,4.13,6.1,13.03,5.41,17.57-.12.81-.16-1.34-.42-2.1-1.83-5.32-2.42-1.06-2.58-.67-.79,1.93-.95,4.72-.25,7.32,3.35,12.39-4.17,28.01-9.39,39.1-1.68,3.57-3.46,7.2-5.38,10.65-.33.6-.92.96-1.64,1.01-.51.03-9.59-4.67-9.61-4.69-.76-.96,2.28-2.52,1.47-3.47-3.76-4.48-6.91-8.05-11.81-10.95-6.26-3.71-13.22-4.98-20.51-5.33-.67-.03-1.24-.35-1.6-.89-.36-.54-.42-1.16-.16-1.74Z"/>
          <path class="st6" d="M291.52,212.22c-11.93,2.25-26.02,27.36-33.04,41.4-2.78,5.55-4.45,9.37-4.45,9.37,20.27.99,28.11,8.69,40.21,24.45,0,0,21.34-37.53,17.49-59.34-1.57-8.89-6.88-16.64-20.21-15.89Z"/>
          <path class="st6" d="M287.93,279.59c2.03,2.35,4.1,4.96,6.31,7.85,0,0,21.34-37.53,17.49-59.34-.79-4.49-2.54-8.69-5.79-11.65,1.2,22.45-5.46,44.48-17.35,62.16l-.66.98Z"/>
          <path class="st14" d="M287.93,279.59c2.03,2.35,4.1,4.96,6.31,7.85,0,0,21.34-37.53,17.49-59.34-.79-4.49-2.54-8.69-5.79-11.65,1.2,22.45-5.46,44.48-17.35,62.16l-.66.98Z"/>
          <path class="st10" d="M232.34,425.21s-.03-.03-.03-.05c-1.76-2.17-3.4-5.5-1.36-8.05,1.6-2,4.44-2.07,6.69-1.35,9.05,2.9,15.77,2.77,24.85.86.59-.12,1.14-.32,1.7-.53,1.11-.42,2.11-.8,3.29-1.04,1.47-.29,3.69.02,4.62,1.3,1.12,1.55.21,3.66.18,5.38,0,.39.02.76.07,1.15.12.95.28,1.85.36,2.81.06.81.19,1.55.36,2.34.18.84.32,1.59-.03,2.42-.61,1.46-2.45,1.95-3.82,2.47-4.8,1.81-11.07,2.43-16.17,2.62-4.74.18-9.82.06-14.52-.65-2.51-.38-7.99-1.23-8.38-4.44-.19-1.59.64-2.82,1.5-4.06.15-.21.64-.91.7-1.21Z"/>
          <path class="st12" d="M237.02,417.69c10.4,3.33,17.67,2.64,25.88.91,1.82-.38,2.92-1.15,4.97-1.56.73-.15,2.22,0,2.59.5.46.64-.18,2.8-.2,4.17-.03,1.46.29,2.27.43,4.15.33,4.36,1.81,3.68-2.19,5.2-10.82,4.09-35.9,2.88-36.36-.83-.25-2.06,3.54-4.1,1.73-6.33-3.97-4.89-.88-7.5,3.15-6.2Z"/>
          <path class="st10" d="M289.2,433.66c5.1-1.49,10.41-2.81,15.6-3.85,4.1-.83,13.55-2.67,17.32-.6,2.17,1.19,3.51,4.28,4.32,6.5,1.14,3.12,1.93,6.5,2.59,9.76.75,3.69,1.34,7.41,1.83,11.14.23,1.72.45,3.45.62,5.17.06.59-.12,1.12-.51,1.55-.4.44-.9.66-1.49.66h-82.68c-.63,0-1.18-.26-1.57-.75-2.67-3.32-3.17-7.83-2.42-11.9.89-4.81,3.48-9.27,6.97-12.67,4.34-4.24,9.9-6.78,15.87-7.76,7.89-1.3,16.07.14,23.56,2.74Z"/>
          <path class="st9" d="M289.15,435.78c-36.49-13.08-50.62,15.91-42.35,26.21h82.68s-2.77-27.96-8.32-31.01c-5.55-3.05-32,4.8-32,4.8Z"/>
          <path class="st10" d="M289.1,435.91c-12.06-4.33-21.67-4.04-28.82-1.35-4.78,1.79-8.46,4.66-11.04,7.93-2.59,3.27-4.08,6.96-4.48,10.4-.4,3.46.3,6.68,2.11,8.97h82.46c-.22-2.15-2.98-27.86-8.24-30.76-5.5-3.02-31.83,4.79-31.9,4.81h-.04s-.04,0-.04,0h0ZM260.18,434.3c7.2-2.7,16.86-3,28.97,1.34,1.11-.33,26.58-7.79,32.07-4.78,5.61,3.08,8.38,31.03,8.39,31.11l.02.15h-82.89l-.04-.05c-1.89-2.35-2.63-5.66-2.21-9.22.41-3.49,1.92-7.22,4.54-10.53,2.62-3.31,6.34-6.21,11.16-8.02Z"/>
          <path class="st10" d="M284.69,434.95c-.73-.24-1.34-.7-1.68-1.41-1.11-2.3,1.73-4.8,1.26-6.19-.19-.58-.75-1.28-1.13-1.75-.94-1.18-2.15-2.48-2.45-4-.22-1.12-.14-2.29.61-3.21,1.05-1.3,2.75-1.34,4.26-1.05,3.56.68,7.55.75,11.16.65,3.56-.1,7.18-.4,10.71-.91,1.32-.19,2.65-.42,3.94-.72.58-.13,1.49-.34,2.02-.61,1.08-.55,2.3-1.02,3.43-1.47,1.2-.47,2.43-.94,3.65-1.34.93-.3,1.89-.33,2.72.27,1.26.9,1.2,2.49,1.4,3.86.29,2.02.03,4.09.47,6.13.36,1.64.86,3.18,1.31,4.79.39,1.4.7,2.87.25,4.3-.53,1.71-1.94,2.75-3.48,3.52-2.36,1.18-6.48,1.66-9.1,1.9-4.41.41-8.96.45-13.38.2-5.15-.29-11.15-1.04-15.97-2.96Z"/>
          <path class="st12" d="M285.18,419.31c9.48,1.83,26.08-.21,29.13-1.77,1.5-.77,5.48-2.25,6.79-2.68,1.39-.46,1.21.53,1.49,2.5.24,1.62.01,4.04.5,6.27,1.33,6.06,3.51,8.19-.85,10.37-4.77,2.39-26.09,3.38-36.88-.95-2-.57,1.74-3.59.83-6.34-.66-1.98-3.2-3.89-3.52-5.5-.31-1.57.37-2.31,2.51-1.9Z"/>
          <path class="st10" d="M285.2,419.18c4.11.8,9.57.86,14.68.55,6.63-.4,12.66-1.43,14.36-2.3.64-.33,1.73-.79,2.86-1.23,1.54-.61,3.19-1.21,3.95-1.45.83-.27,1.17-.08,1.35.49.1.3.14.7.2,1.2.03.28.07.58.11.92.09.65.12,1.44.14,2.28.03,1.25.07,2.65.36,3.97.31,1.43.67,2.64.98,3.68,1.03,3.45,1.52,5.12-1.91,6.84-2.67,1.34-10.47,2.24-18.72,2.03-6.58-.17-13.46-1.05-18.26-2.97-.7-.2-.79-.65-.62-1.27.11-.37.32-.81.55-1.28.56-1.15,1.25-2.56.81-3.87-.32-.95-1.1-1.9-1.84-2.81-.78-.95-1.52-1.86-1.68-2.71-.16-.84-.06-1.46.38-1.82.43-.36,1.17-.45,2.28-.23h0ZM299.9,419.99c-5.13.31-10.61.25-14.74-.55-1.03-.2-1.7-.13-2.06.18-.36.3-.43.83-.29,1.56.15.78.87,1.66,1.63,2.59.76.92,1.55,1.89,1.88,2.89.47,1.42-.24,2.88-.82,4.07-.23.47-.43.89-.53,1.24-.13.46-.06.8.44.94h.01c4.77,1.92,11.61,2.79,18.17,2.96,8.21.21,15.96-.68,18.6-2,3.23-1.62,2.75-3.22,1.77-6.53-.31-1.05-.67-2.26-.99-3.7-.29-1.34-.33-2.76-.37-4.02-.02-.84-.04-1.61-.14-2.25-.05-.34-.09-.65-.12-.93-.05-.49-.1-.88-.19-1.15-.13-.4-.38-.52-1.01-.31-.75.25-2.39.84-3.93,1.45-1.13.45-2.21.9-2.84,1.22-1.73.89-7.81,1.93-14.47,2.33Z"/>
          <path class="st19" d="M243.17,452.35h87.71c2.17,0,3.94,1.76,3.94,3.94v4.54c0,2.17-1.76,3.94-3.94,3.94h-87.71c-2.17,0-3.94-1.76-3.94-3.94v-4.55c0-2.17,1.76-3.93,3.93-3.93Z"/>
          <path class="st1" d="M243.17,454.36h87.71c1.06,0,1.92.86,1.92,1.92v4.55c0,1.06-.86,1.92-1.92,1.92h-87.71c-1.06,0-1.92-.86-1.92-1.92v-4.55c0-1.06.86-1.92,1.92-1.92Z"/>
          <path class="st10" d="M243.17,454.22h87.71c.57,0,1.08.23,1.45.61.37.37.6.89.6,1.45v4.55c0,.57-.23,1.08-.6,1.45s-.89.6-1.45.6h-87.71c-.57,0-1.08-.23-1.45-.6-.37-.37-.6-.89-.6-1.45v-4.55c0-.56.23-1.08.6-1.45.37-.37.89-.61,1.45-.61h0ZM330.88,454.5h-87.71c-.49,0-.94.2-1.26.52-.32.32-.52.77-.52,1.26v4.55c0,.49.2.94.52,1.26.32.32.77.52,1.26.52h87.71c.49,0,.94-.2,1.26-.52.32-.33.53-.77.53-1.26v-4.55c0-.49-.2-.94-.53-1.26-.32-.32-.77-.52-1.26-.52Z"/>
          <path class="st10" d="M180.35,279.12c-.23-.45-.09-1.03.3-1.3.4-.26.9-.11,1.13.34,2.32,4.59,3.62,9.28,3.62,9.3.14.5-.1,1.03-.53,1.19s-.9-.11-1.04-.61c0-.01-1.24-4.51-3.48-8.92Z"/>
          <path class="st10" d="M187.17,275.16c-.27-.42-.18-1.02.19-1.32.37-.31.89-.21,1.15.22,3.18,5.06,5.17,10.37,5.17,10.39.18.48-.01,1.04-.43,1.24-.42.21-.9-.01-1.08-.49,0-.02-1.92-5.13-5-10.03Z"/>
          <path class="st10" d="M194.06,273.31c-.27-.43-.18-1.02.19-1.32.37-.3.89-.21,1.15.21,3.18,5.06,5.17,10.37,5.17,10.39.18.48-.01,1.04-.43,1.24-.42.21-.9-.01-1.08-.49,0-.01-1.92-5.13-5-10.03Z"/>
          <path class="st10" d="M260.45,275.3c.48.28.64.9.36,1.38-.28.48-.9.64-1.38.36-5.08-2.97-12.16-2.8-12.18-2.8-.55,0-1.01-.43-1.02-.99,0-.55-.54-1.63.01-1.64.02,0,8.63.43,14.2,3.69Z"/>
          <path class="st10" d="M257.95,255.75c-.37,0-.67-.29-.68-.66,0-.37.29-.67.66-.68,10.1-.15,18.57,2.67,25.24,6.73,8.86,5.4,14.56,13.03,16.71,18.89.13.35-.05.73-.4.86-.35.13-.73-.05-.86-.4-2.06-5.63-7.57-12.98-16.14-18.21-6.48-3.95-14.71-6.68-24.53-6.54Z"/>
          <path class="st10" d="M342.47,307.02c-3.08,5.07-8.33,10.5-17.45,14.48-9.06,3.94-21.95,6.46-40.37,5.74-10.95-.43-19.48-1.53-26.05-2.85-.36-.59-.72-1.12-1.06-1.57,6.65,1.43,15.49,2.64,27.16,3.09,18.2.7,30.89-1.76,39.78-5.63,8.83-3.85,13.88-9.07,16.84-13.95.19-.32.6-.42.92-.23.31.19.41.6.22.92Z"/>
          <path class="st10" d="M263.56,365.48c.39-.39.94-.39,1.33,0,.39.39-.32,1.83-.72,2.22-3.51,3.49-5.63,7.59-5.64,7.61-.29.48-.91.63-1.38.34-.48-.29-.63-.9-.34-1.38,0-.02,3.05-5.11,6.75-8.79Z"/>
          <path class="st10" d="M311.75,365.74c.45-.32-.01,1,.31,1.45.32.45.22,1.08-.23,1.4-2.17,1.56-7.32,7.14-7.09,9.94.04.55-.37,1.04-.92,1.09-.55.05-1.04-.37-1.09-.92-.31-3.78,6.27-9.84,9.01-12.96Z"/>
          <path class="st10" d="M271.79,345.8c-.53.19-1.1-.09-1.29-.6,0-.03-1.88-5.52-7.58-8.58,0-.79-.06-1.55-.18-2.32,7.29,3.28,9.65,10.2,9.66,10.23.18.52-.1,1.09-.61,1.28Z"/>
          <path class="st10" d="M329.06,327.52c.16-.33.56-.47.9-.3.33.16.47.56.3.9-6.67,13.44-29.17,41.07-31.75,44.23,1.45,3.84,14.19,37.67,15.87,43.4.1.35-.1.73-.45.83-.35.11-.73-.1-.83-.45-1.77-6.02-15.93-43.56-15.98-43.66-.08-.22-.05-.47.11-.66.07-.09,24.83-30.16,31.83-44.27Z"/>
          <path class="st10" d="M317.9,330.61c.11-.35.49-.55.84-.44.35.12.55.49.43.84-1.63,5.05,3.48,8.85,3.5,8.86.29.22.35.64.13.94-.22.29-.64.35-.94.13-.02-.01-5.89-4.37-3.96-10.33Z"/>
          <path class="st10" d="M271.85,342.8c.25-.27.68-.29.95-.03.27.25.29.68.03.95-8.42,9.08-17.92,27.59-19.13,29.97.93,2.59,8.15,23.03,8.83,32.61l.71,10.13c.02.37-.25.69-.62.71-.37.02-.69-.25-.71-.63l-.71-10.13c-.7-10.03-8.82-32.45-8.85-32.51-.06-.17-.05-.36.03-.53.03-.06,10.35-20.7,19.48-30.54Z"/>
          <path class="st10" d="M301.55,275.64c-.55.04-.17-.22-.21-.78-.04-.55-.49-1.19.07-1.23,1.27-.09,2.43-.33,3.48-.7,4.44-1.55,7.2-5.46,8.75-10.45,1.6-5.15,1.93-11.43,1.48-17.54-.46-6.29-1.75-12.36-3.3-16.8-.18-.52.09-1.1.62-1.28.52-.18,1.1.09,1.28.62,1.61,4.59,2.94,10.85,3.41,17.32.47,6.32.12,12.87-1.56,18.28-1.73,5.57-4.88,9.95-10.01,11.74-1.23.43-2.56.71-4,.81Z"/>
          <path class="st10" d="M235.95,229.45c-.2-.52.06-1.1.58-1.3.52-.2,1.1.06,1.3.58,9.16,23.92,35.59-7.16,37.24-28.24.04-.55.52-.97,1.08-.93.55.04.97.53.93,1.08-1.86,23.83-31.14,54.88-41.12,28.8Z"/>
          <path class="st10" d="M241.34,457.29c-.37-.01-.66-.32-.65-.69,0-.37.32-.66.69-.65,12.61.36,90.73-.18,90.95-.18.37,0,.67.3.67.67,0,.37-.3.67-.67.67-.22,0-78.38.53-91,.18Z"/>
          <path class="st10" d="M185.89,457.29c-.37-.02-.66-.33-.64-.7.02-.37.33-.66.7-.64,7.64.36,55-.18,55.14-.18.37,0,.67.3.67.66,0,.37-.29.67-.66.67-.14,0-47.55.53-55.21.18Z"/>
          <path class="st10" d="M230.66,423.09c-.42-.36-.47-1-.1-1.42.36-.42,1-.46,1.42-.1,4.15,3.61,5.91,5.37,5.92,5.38.39.39.39,1.03,0,1.42-.39.39-1.03.39-1.42,0,0,0-1.78-1.78-5.81-5.28Z"/>
          <path class="st10" d="M270.99,421.41c.51-.22,1.1.02,1.32.53.22.51-.02,1.1-.53,1.32-2.3.99-4.74,3.51-4.74,3.51-.39.4-1.03.4-1.42.01-.4-.39-.4-1.03-.01-1.42,0,0,2.71-2.81,5.39-3.95Z"/>
          <path class="st10" d="M283,425.04c-.46-.3-.59-.93-.29-1.39.3-.46.93-.59,1.39-.29,7.92,5.22,8.36,5.51,8.36,5.51.46.31.59.94.28,1.4-.31.46-.93.59-1.4.28,0,0-1.7-1.13-8.34-5.51Z"/>
          <path class="st10" d="M322.87,416.64c.2-.52.79-.77,1.3-.57.52.2.77.79.57,1.3-3.02,7.72-3.89,10.51-3.89,10.51-.17.53-.74.82-1.26.65-.53-.17-.82-.74-.65-1.26,0,0,.9-2.89,3.93-10.63Z"/>
          <path class="st10" d="M329.71,274.89c-.07-.55.31-1.06.86-1.13.55-.07,1.23,2.09,1.31,2.64,1.08,7.91,1.08,12.02,1.08,12.04,0,.56-.45,1.01-1.01,1.01s-1.01-.45-1.01-1.01c0-.02-.18-5.82-1.23-13.55Z"/>
          <path class="st14" d="M311.47,242.17c1.11,10.1-3.66,21.72-8.03,31.18.5-.11.99-.25,1.45-.41,4.44-1.55,7.2-5.46,8.75-10.45,1.6-5.15,1.93-11.43,1.48-17.54-.27-3.6-.8-7.14-1.5-10.33-.42-1.91-.9-3.7-1.41-5.31-.1-.05-.2-.04-.28,0,.09.7.16,1.41.21,2.13.21,3.36-.05,6.99-.65,10.73Z"/>
          <path class="st10" d="M215.6,431.52c-.56-.04-.97-.53-.93-1.08.04-.55.53-.97,1.08-.92,7.25.58,12.15,3.4,15.45,6.9,6.22,6.58,6.7,15.6,6.7,16.58,0,.56-.45,1.01-1.01,1.01s-1.01-.45-1.01-1.01c0-.9-.44-9.16-6.15-15.21-2.99-3.17-7.47-5.73-14.14-6.27Z"/>
          <path class="st10" d="M270.18,432.5c-.55-.04-.97-.53-.92-1.08.04-.55.53-.97,1.08-.92,6.95.56,11.64,3.26,14.81,6.61,5.96,6.31,6.42,14.95,6.42,15.89,0,.56-.45,1.01-1.01,1.01s-1.01-.45-1.01-1.01c0-.86-.42-8.75-5.87-14.51-2.86-3.03-7.13-5.47-13.5-5.98Z"/>
          <path class="st10" d="M319.73,453.4c-.22.51-.82.74-1.33.51s-.74-.82-.51-1.32c5.08-11.48,10.02-11.08,10.03-11.08.55.03.98.5.95,1.05-.03.56-.5.98-1.05.95-.01,0-3.58-.31-8.09,9.89Z"/>
          <path class="st13" d="M162.82,330.5c-.33-8.44-.32-13.06-2.04-14.35-2,9.74-1.42,19.8-1.1,25.25.07,1.13.12,2.01.12,2.73v119.16h3.06c.11-29.18.41-121.45-.03-132.8Z"/>
          <path class="st10" d="M312.4,268.19c-.1-.35.1-.73.45-.83.35-.11.73.1.83.45,1.19,4.05,2.67,7.43,4.01,10.49,1.86,4.25,3.45,7.88,3.66,11.88.17,3.25.77,5.56,1.92,7.65,1.16,2.11,2.9,4.03,5.35,6.48,5.2,5.2,4.64,11.7,4.64,11.72-.03.37-.35.64-.72.62-.37-.03-.65-.35-.62-.72,0-.02.51-5.91-4.25-10.67-2.53-2.53-4.34-4.53-5.58-6.78-1.25-2.27-1.9-4.76-2.08-8.23-.2-3.76-1.74-7.28-3.55-11.41-1.35-3.09-2.85-6.52-4.06-10.65Z"/>
          <path class="st10" d="M274.62,209.66c-.36-.08-.6-.43-.52-.79.07-.36.43-.6.79-.52,9.15,1.89,11.76,4.43,11.77,4.43.27.25.28.68.03.95-.25.27-.68.28-.95.03,0,0-2.35-2.29-11.12-4.1Z"/>
          <path class="st10" d="M230.98,433.55c-.5-.25-.7-.85-.45-1.35.25-.49.85-.69,1.35-.44,2.3,1.17,4.06,2.59,5.33,4.02,1.64,1.84,2.49,3.74,2.67,5.14.07.55-.32,1.05-.87,1.12-.55.07-1.05-.32-1.12-.87-.14-1.05-.83-2.53-2.19-4.05-1.12-1.26-2.68-2.52-4.73-3.56Z"/>
          <path class="st10" d="M237.31,434.58c-.51-.21-.77-.79-.56-1.31.21-.51.79-.77,1.31-.56,2.29.93,4.05,2.06,5.33,3.21,1.68,1.5,2.56,3.08,2.75,4.25.09.55-.29,1.06-.83,1.15-.55.09-1.06-.29-1.15-.83-.13-.78-.79-1.9-2.11-3.07-1.12-1-2.68-2-4.74-2.84Z"/>
          <path class="st10" d="M286.56,435.68c-.5-.25-.7-.86-.45-1.35.25-.5.85-.7,1.35-.44,2.3,1.17,4.06,2.59,5.33,4.02,1.64,1.84,2.49,3.74,2.67,5.14.07.55-.32,1.05-.87,1.12-.55.07-1.05-.32-1.12-.87-.14-1.05-.83-2.53-2.18-4.05-1.12-1.26-2.68-2.52-4.74-3.56Z"/>
          <path class="st10" d="M292.89,436.71c-.52-.21-.77-.79-.56-1.31.21-.51.79-.77,1.31-.56,2.29.93,4.05,2.06,5.33,3.21,1.68,1.51,2.56,3.08,2.75,4.25.09.55-.29,1.06-.83,1.15-.55.09-1.06-.29-1.15-.84-.13-.78-.79-1.89-2.11-3.07-1.12-1-2.68-2-4.74-2.84Z"/>
        </g>
        <g>
          <g>
            <path class="st10" d="M269.87,191.04c4.98,36.29-26.8,52.76-31.42,33.01-1.01-4.31-.92-9.25.09-13.55,1.45-6.16,4.94-11.69,11.02-14.1l17.58-6.96c.59-.24,1.21-.19,1.76.13.55.32.89.83.98,1.47Z"/>
            <path class="st8" d="M267.87,191.31c2.16,15.74-3.38,26.21-9.49,32.5-7.65,7.89-16.69,8.62-18.32-2-1.26-8.2,1.08-19.91,10.23-23.54l17.58-6.96Z"/>
            <path class="st11" d="M204.86,113.55c-10.54-12.57-47.49-1.33-37.83,33.45,2.19,7.89,4.38,10.37,4.38,10.37l33.45-43.82Z"/>
            <path class="st2" d="M168.95,122.27c2.3,3.76,7.63,2.4,14.62-3.34.27-.22.53-.44.8-.65,3.06-3.68,6.43-6.86,10.07-9.52-8.89-.81-19.97,3.7-25.48,13.5Z"/>
            <path class="st10" d="M261.86,194.54c-.13,5.72-1.39,11.29-3.89,16.5-2.1,4.38-5.07,8.48-8.65,11.78-7.46,6.89-16.47,10.2-26.47,11.24-8.35.87-16.9.28-24.86-2.48-6.45-2.24-12.19-5.78-17.06-10.57-10.15-9.97-15.26-23.97-16.71-37.91-1.57-15.09.98-30.95,6.89-44.91,2.96-7,6.81-13.63,11.54-19.58,5.51-6.94,12.36-12.59,20.5-16.18,7.67-3.38,16.04-4.66,24.38-4.08,13.49.93,28.18,6.96,37.85,16.51,17.87,17.65,12.11,44.79,5.37,66.07-1.56,4.93-3.16,9.86-4.99,14.71-.22.59-.63,1.1-1.29,1.19-1.15.16-2.03-1.21-2.61-2.29Z"/>
            <path class="st10" d="M183.44,119.24c11.03-13.87,26.27-21.1,44.02-19.88,13.23.91,27.71,6.83,37.21,16.22,17.53,17.32,11.74,44.14,5.12,65.04-1.55,4.88-3.14,9.82-4.97,14.65-1.12,2.96-4.16-7.03-4.01-3.9.78,15.39-6.71,25.67-12.17,30.71-7.3,6.74-16.1,9.96-25.89,10.98-15.21,1.59-29.98-1.84-41.11-12.77-9.98-9.8-14.99-23.59-16.42-37.29-1.56-14.92.98-30.61,6.81-44.41,2.92-6.91,6.73-13.47,11.4-19.35Z"/>
            <path class="st16" d="M185.02,120.5c-28.68,36.07-24.13,99.13,18.14,109.47,5.76,1.41,12.22,1.84,19.39,1.09,28.47-2.98,36.76-24.02,45.32-51.04,6.97-22.02,11.65-46.94-4.61-63-15.89-15.69-53.85-27.18-78.23,3.48Z"/>
            <path class="st10" d="M294.64,131.56c.77,2.09,1.36,4.23,1.74,6.43,1.41,8.17-.19,16.16-3.81,23.56-1,2.05-2.13,4.04-3.35,5.96-2.59,4.08-11.18,16.3-17.19,13.86-1.83-.74-2.69-2.53-3.05-4.37-.02-.1-.03-.19-.04-.3-.04-.8-.23-1.8-.37-2.58-.6-3.34-1.45-6.71-2.34-9.99-.99-3.68-2.5-7.44-3.98-10.95-.7-1.67-5-16.57-4.95-16.62.82-.73,2.41.39,3.39,1.03-.9-1.58-3.68-8.86-3.79-8.97,1.42-.45,4.33,3.54,5.49,4.28-1.22-2.69-7.5-15.2-6.52-17.71,1.11-2.84,4.27-4.31,7.06-4.96,3.63-.86,7.68-.67,11.3.11,10.08,2.17,17.99,8.93,21.93,18.45.34.82.12,1.74-.57,2.31-.29.24-.63.4-.98.45Z"/>
            <path class="st11" d="M257.77,115.93c-.42,1.09,7.35,17.45,7.35,17.45l-8.18-5.26s5.84,9.93,6.43,11.54c.58,1.61-6.72-3.36-6.72-3.36,0,0,8.91,17.53,11.54,27.31,2.63,9.79,2.78,13,2.78,13,1.82,9.19,14.04-4.15,19.8-15.95,10.46-21.42-2.77-35.11.71-32.91l2.85,1.81c-8.63-20.89-33.83-20.58-36.55-13.63Z"/>
            <path class="st2" d="M260.74,114.72c3.84,11,8.83,18.77,13.05,24.07.18.22.35.44.52.65,4.62,5.68-3.73-12.62-3.73-12.62,0,0,1.15,1.33,3.2,3.24,3.37,3.13,9.17,7.82,16.34,10.8,1.61.67,3.19,1.19,4.73,1.6-.27-6.01-2.12-10.46-3.2-12.88-.8-1.78-1.17-2.45-.18-1.83l2.85,1.81c-6.97-16.87-24.76-19.91-32.77-16.8-.46.18-.89.38-1.28.6.15.46.31.91.46,1.36Z"/>
            <path class="st10" d="M284.13,123.65c-.46-.31-.57-.94-.25-1.4.31-.46.94-.57,1.4-.26,11.73,8.13,11.45,18.84,11.45,18.87,0,.55-.46,1-1.02.99-.55,0-1-.46-.99-1.02,0-.03.25-9.69-10.58-17.2Z"/>
            <path class="st10" d="M281.82,159.67c4.64,1.16,8.6,3.74,10.63,8.2,3.09,6.83.46,15.29-3.61,21.13-4.25,6.1-11.25,11.14-19.01,10.29-5.01-.55-6.1-1.56-7.96-6.52-1-2.67-1.04-5.63-.76-8.44.33-3.3,2.37-6.17,4.05-9.64.48-.98-1.12-1.35-1-2.44.92-8.98,9.42-14.65,17.67-12.58Z"/>
            <path class="st16" d="M281.33,161.62c21.34,5.35,6.13,37.58-11.28,35.67-10.16-1.12-10.87-8.12-10.31-13.83,1-10.12,9.79-24.8,21.59-21.84Z"/>
            <path class="st8" d="M270.38,176.41c-1.69,1.38-3.42,7.11-3.42,7.11,0,0,4.84-2.58,6.44-.05,1.6,2.53-2.04,7.73-2.04,7.73,0,0,11.73-1.38,14.66-11.24,2.93-9.86-2.58-11.19-4.26-11.37-1.69-.18-7.82-.27-11.37,7.82Z"/>
            <path class="st10" d="M285.53,173.9c-1.78-4.38-4.57-5.73-9.37-3.11-3.74,2.04-7.04,6.72-6.99,11.09,3.5-.69,6.8.2,5.77,5.05-.34,1.62-2.36,4.1-3.98,3.92.73-1.16,2.46-1.69,2.67-4.13.4-4.81-3.99-3.16-6.6-1.74l-.05-.23-.03.02c-5.51-15.79,21.48-22.14,18.57-10.87Z"/>
            <path class="st2" d="M268.65,165.36c-.57.52-1.12,1.08-1.65,1.67-.09.11-.19.21-.28.32.12.02.24.03.37.04.56.04,1.24-.02,2.02-.19.75-.16,1.6-.42,2.54-.78.64-.25,1.33-.55,2.06-.9.08-.04.16-.08.25-.12,3.45-1.53,8.99-1.03,12.87,2.11.52.42,1.02.89,1.47,1.42,2.03,2.32,3.27,5.63,2.93,10.05,1.03-4.36.68-8.72-1.63-12.06-.4-.58-.85-1.12-1.36-1.63-.95-.94-2.11-1.77-3.5-2.44-1.01-.49-2.15-.9-3.41-1.22-2.34-.59-4.56-.48-6.63.15-.31.09-.61.2-.91.31-.41.16-.81.33-1.2.53-.04.02-.08.04-.12.06-1.12.57-2.19,1.29-3.19,2.13-.21.18-.42.36-.63.55Z"/>
          </g>
          <g>
            <path class="st8" d="M178.24,176.72c1.85,0,3.57.33,5.02.9,1.36.53.71,3.41,1.48,4.29.72.82,2.9-.37,2.9.63,0,3.21-4.21,5.81-9.4,5.81s-9.4-2.6-9.4-5.81,4.21-5.81,9.4-5.81Z"/>
            <path class="st8" d="M184.06,156.62c-1.85.05-3.5.85-4.69,2.1-1.18,1.25-1.89,2.95-1.84,4.8v.04s0,0,0,0c.06,1.83.86,3.47,2.1,4.65,1.25,1.18,2.95,1.89,4.8,1.84h.04s0,0,0,0c1.83-.06,3.47-.86,4.65-2.1,1.18-1.25,1.89-2.95,1.84-4.8-.05-1.85-.85-3.5-2.1-4.69-1.25-1.18-2.95-1.89-4.8-1.84h0ZM176.94,156.41c1.77-1.87,4.25-3.06,7.04-3.13,2.78-.08,5.32.98,7.19,2.75,1.87,1.77,3.06,4.25,3.13,7.04.08,2.78-.98,5.32-2.75,7.19-1.77,1.87-4.25,3.06-7.04,3.13h-.04s0,0,0,0c-2.76.06-5.29-.99-7.15-2.76-1.87-1.77-3.06-4.25-3.13-7.04v-.04s0,0,0,0c-.06-2.76.99-5.29,2.76-7.15Z"/>
            <path class="st8" d="M269.85,162.09c-1.29.07-2.61.16-3.95.26-13.33,1.03-29.17,3.41-34.35,5.12l.84,2.55c5.02-1.65,20.56-3.98,33.71-5,.29-.02.58-.04.87-.07.83-1.1,1.8-2.07,2.88-2.87Z"/>
            <path class="st8" d="M192.78,162.79c3.22-1.06,8.19-1.12,12.81-.44,4.59.68,8.92,2.12,10.97,4.06l-1.85,1.94c-1.63-1.55-5.4-2.74-9.51-3.34-4.25-.63-8.76-.6-11.58.33l-.84-2.55Z"/>
            <path class="st8" d="M170.95,151.63c-.31,1.2-.6,2.41-.87,3.62l4.84,7.6c.4.62,1.22.81,1.85.41.62-.4.81-1.23.41-1.85l-6.23-9.78Z"/>
            <path class="st8" d="M223.29,160.05c-1.83.06-3.47.86-4.65,2.1-1.18,1.25-1.89,2.95-1.84,4.8.05,1.85.85,3.51,2.1,4.69,1.25,1.18,2.95,1.89,4.8,1.84,1.85-.05,3.5-.85,4.69-2.1,1.18-1.25,1.89-2.95,1.84-4.8v-.04s0,0,0,0c-.06-1.83-.86-3.47-2.1-4.65-1.25-1.18-2.95-1.89-4.8-1.84h-.04s0,0,0,0h0ZM216.21,159.84c1.77-1.87,4.25-3.06,7.04-3.13h.04s0,0,0,0c2.76-.06,5.29.99,7.15,2.76,1.87,1.77,3.06,4.25,3.13,7.04v.04s0,0,0,0c.06,2.76-.99,5.29-2.76,7.15-1.77,1.87-4.25,3.06-7.04,3.13-2.77.08-5.32-.98-7.19-2.76-1.87-1.77-3.06-4.25-3.13-7.04-.08-2.78.98-5.32,2.75-7.19Z"/>
            <path class="st10" d="M193.79,142.91c2.95.18,5.13,3.92,4.85,8.36-.27,4.43-2.89,7.88-5.85,7.69-2.95-.18-5.13-3.92-4.85-8.36.27-4.43,2.89-7.87,5.85-7.69Z"/>
            <path class="st2" d="M197.5,144.58c1.1.07,1.93,1.01,1.86,2.11-.07,1.1-1.01,1.93-2.11,1.86-1.1-.07-1.93-1.01-1.86-2.11.07-1.1,1.01-1.93,2.11-1.86Z"/>
            <path class="st2" d="M196.24,127.86c4.63-.63,6.35,5.74,3.51,7.54-2.84,1.81-14.77,2.87-15.54,1.27-.77-1.59,4.27-8.82,12.02-8.82Z"/>
            <path class="st8" d="M186.96,171.52c-4.09,4.35-3.73,10.93,6.22,11.9,9.95.98,15.9-.53,17.86-2.4,1.95-1.87,1.33-3.82,1.33-3.82,0,0,6.31,5.33-.45,9.51-6.75,4.18-25.23-.71-26.21-1.15-.98-.45-6.57-4.53,1.24-14.04Z"/>
            <path class="st10" d="M191.32,193.65c11.14,3.95,8.03,10.24,8.03,13.12,0,5.37,9.53,6.33,16.85,3.23,7.69-3.25,13.14-10.82,10.6-15.39-1.42-2.56-21.88-6.51-35.48-.96Z"/>
            <path class="st8" d="M203.72,209.76c3.37.7,7.88.19,11.77-1.45,3.7-1.56,6.88-4.13,8.9-6.88-14.52-2.56-18.04,2.55-20.67,8.33Z"/>
            <path class="st10" d="M201.84,186.84c1.28-.44,2.91-.67,4.2-.9,2.41-.43,4.79-.88,7.17-1.45,3.6-.86,8.81,1.66,11.69,3.74,2.24,1.62,4.31,3.89,5.07,6.61.59,2.07.35,4.65-1.65,5.9-.86.54-1.87.68-2.86.48-.9-.18-1.77-.52-2.61-.89-.46-.2-2.04-.98-2.75-1.13,0,.01,0,.03-.01.04-.4,1.25-1.11,2.44-2.01,3.39-.58.6-1.24,1.12-1.98,1.51-1.43.75-3.01.97-4.58.6-1.88-.43-3.47-1.62-4.75-3.01-.38-.41-1.84-1.94-2.49-2.17-.21.14-.54.51-.66.65-.58.64-1.12,1.29-1.73,1.9-1.23,1.22-2.78,2-4.52,2.05-3.44.1-6.05-2.56-7.45-5.45-.03-.06-.07-.15-.13-.23-.6.26-1.87,1.07-2.27,1.27-2.08,1.06-4.18,1.23-6.2-.15-.92-.63-1.61-1.48-1.94-2.55-1.24-4.04,3.34-8.9,6.43-10.97.54-.36,1.16-.44,1.78-.23,1.75.6,4.36.79,6.21.9,2.64.16,5.39.2,8.05.12Z"/>
            <path class="st11" d="M186.93,187.73c-3.3,2.22-8.04,7.77-4.48,10.18,4.05,2.75,7.15-4.48,9.28-.1,2.13,4.38,5.97,5.61,8.74,2.85,2.77-2.75,3.2-5.3,7.78-.3,4.59,4.99,8.85,1.63,9.92-1.73,1.07-3.36,4.59,0,7.68.61,3.09.61,3.95-4.99-2.13-9.38-1.97-1.42-6.94-4.15-10.04-3.41-5.8,1.38-9.8,1.74-11.45,2.4,0,0-11.03.35-15.3-1.11Z"/>
            <path class="st10" d="M191.14,170.15c-.56.26-1.08.53-1.61.84-1.9,1.19-3.22,2.39-4.45,4.27-1.12,1.88-1.56,3.46-1.42,5.66.11,1.01.37,1.69.96,2.51.65.84,1.31,1.34,2.22,1.88,2.2,1.21,4.35,1.72,6.81,2.13.86.11,9.91.58,9.92.77.1.99-9.53.36-10.07.31-2.67-.31-4.92-.77-7.34-1.98-1.12-.61-1.91-1.19-2.73-2.18-.81-1.05-1.18-1.96-1.36-3.27-.23-2.59.24-4.49,1.53-6.74,1.37-2.18,2.84-3.56,5-4.92.6-.36,1.17-.66,1.8-.95,1.68-.73,3.08-1.13,4.9-1.32.54,0,7.75.27,6.2,1.86-.2,1.12-2.71-.26-6.03-.1-1.6.2-2.85.57-4.33,1.21Z"/>
            <path class="st10" d="M211.05,182.06c-4.48-1.49-11.94,3.73-8.54,3.37,3.41-.36,10.01-2.51,8.54-3.37Z"/>
            <path class="st8" d="M204.9,216.56c6.61,1.95,18.12-3.2,18.12-3.2-4.33,12.68-14.57,14.61-18.12,3.2Z"/>
            <path class="st8" d="M236.93,195.36c.55,0,1.01.45,1.01,1,0,.55-.45,1.01-1,1.01-3.15,0-5.57-2.06-5.74-2.21,0,0-2.55-2.16-2.98-5.4-.07-.55.31-1.06.86-1.13.55-.07,1.06.31,1.13.86.33,2.47,2.29,4.14,2.3,4.14h.01s1.92,1.74,4.42,1.73Z"/>
            <path class="st10" d="M207.49,187.25c-.55-.07-.95-.57-.88-1.12.07-.55.57-.94,1.12-.88,3.27.41,5.16-.51,6.04-1.82.52-.78.69-1.72.58-2.59-.11-.86-.48-1.64-1.05-2.14-.67-.59-1.68-.77-2.91-.16-.5.25-1.1.05-1.35-.45s-.05-1.1.45-1.35c2.08-1.04,3.87-.66,5.13.44.95.83,1.56,2.07,1.72,3.41.16,1.32-.1,2.74-.9,3.94-1.25,1.89-3.78,3.23-7.95,2.71Z"/>
            <path class="st10" d="M230.71,145.67c3.02.19,5.24,4.01,4.96,8.55-.28,4.53-2.96,8.06-5.98,7.87-3.02-.19-5.25-4.01-4.96-8.55.28-4.53,2.96-8.06,5.98-7.87Z"/>
            <path class="st2" d="M235.12,147.07c1.12.07,1.98,1.04,1.91,2.16-.07,1.12-1.04,1.98-2.16,1.91-1.12-.07-1.98-1.04-1.91-2.16.07-1.12,1.04-1.98,2.16-1.91Z"/>
            <path class="st2" d="M182.85,154.66c-1.85.05-3.51.85-4.69,2.1-1.18,1.25-1.89,2.95-1.84,4.8v.04s0,0,0,0c.06,1.83.86,3.48,2.1,4.65,1.25,1.18,2.95,1.89,4.8,1.84h.04s0,0,0,0c1.83-.06,3.47-.86,4.65-2.1,1.18-1.25,1.89-2.95,1.84-4.8-.05-1.85-.85-3.5-2.1-4.69-1.25-1.18-2.95-1.89-4.8-1.84h0ZM175.73,154.45c1.77-1.87,4.25-3.06,7.04-3.13,2.78-.07,5.32.98,7.19,2.76,1.87,1.77,3.06,4.25,3.14,7.04.07,2.77-.98,5.32-2.76,7.19-1.77,1.87-4.25,3.06-7.04,3.13h-.04s0,0,0,0c-2.76.06-5.29-.99-7.15-2.76-1.87-1.77-3.06-4.25-3.13-7.04v-.04s0,0,0,0c-.06-2.76.99-5.29,2.76-7.15Z"/>
            <path class="st2" d="M230.34,165.52c5.18-1.71,21.02-4.09,34.35-5.12,3.3-.25,6.46-.42,9.3-.46-1.84.6-3.54,1.57-5.01,2.85-1.32.08-2.69.17-4.09.28-13.15,1.02-28.69,3.34-33.71,5l-.84-2.55Z"/>
            <path class="st2" d="M191.57,160.83c3.22-1.06,8.2-1.12,12.81-.44,4.59.68,8.92,2.11,10.97,4.06l-1.85,1.94c-1.63-1.55-5.4-2.74-9.51-3.34-4.25-.63-8.76-.6-11.58.33l-.84-2.55Z"/>
            <path class="st2" d="M175.97,159.45c.4.63.21,1.45-.41,1.85-.62.4-1.45.21-1.85-.41l-6.37-9.99c-.4-.62-.21-1.45.41-1.85.62-.4,1.45-.21,1.85.41l6.37,9.99Z"/>
            <path class="st2" d="M222.08,158.1c-1.83.06-3.47.86-4.65,2.1-1.18,1.25-1.89,2.95-1.84,4.8.05,1.85.85,3.5,2.1,4.69,1.25,1.18,2.95,1.89,4.8,1.83,1.85-.05,3.51-.85,4.69-2.1,1.18-1.25,1.89-2.95,1.84-4.8v-.04s0,0,0,0c-.06-1.83-.86-3.47-2.1-4.65-1.25-1.18-2.95-1.89-4.8-1.83h-.04s0,0,0,0h0ZM215.01,157.89c1.77-1.87,4.25-3.06,7.04-3.13h.04s0,0,0,0c2.76-.07,5.29.99,7.15,2.76,1.87,1.77,3.06,4.25,3.13,7.04v.04s0,0,0,0c.06,2.76-.99,5.29-2.76,7.15-1.77,1.87-4.25,3.06-7.04,3.13-2.78.07-5.32-.98-7.19-2.76-1.87-1.77-3.06-4.25-3.14-7.04-.07-2.77.98-5.32,2.76-7.19Z"/>
            <path class="st2" d="M215.85,192.13c-7.02,2.65-15.15,2.98-23.05.96-2.88-.74-5.73-1.79-8.49-3.15-2.55,2.61-4.53,6.17-1.87,7.98,4.05,2.75,7.15-4.48,9.28-.1,1.93,3.97,5.27,5.35,7.94,3.53.28-.19.55-.41.81-.67,2.77-2.75,3.2-5.3,7.78-.3.7.76,1.4,1.33,2.08,1.74,2.77,1.65,5.24.51,6.71-1.34.51-.65.9-1.39,1.14-2.13,1.07-3.36,4.59,0,7.68.61.5.1.95.03,1.31-.16,1.87-1.02,1.64-5.54-3.45-9.21-.3-.21-.66-.46-1.07-.71-1.39.73-3.12,1.53-5.26,2.38-.49.2-1,.39-1.53.59Z"/>
            <path class="st2" d="M187.39,176.85c-.3.47-.92.61-1.39.31-.47-.3-.61-.91-.32-1.38,1.46-2.31,3.22-4,5.23-5.07,2.07-1.1,4.38-1.54,6.89-1.35.55.04.97.53.93,1.08-.04.55-.52.97-1.08.93-2.12-.16-4.07.21-5.79,1.12-1.71.91-3.21,2.36-4.47,4.36Z"/>
            <path class="st2" d="M228.86,129.63c-4.63-.63-6.35,5.74-3.51,7.54,2.83,1.81,14.76,2.87,15.54,1.28.77-1.59-4.27-8.82-12.02-8.82Z"/>
            <path class="st10" d="M202.55,217.33c-.52-.18-.8-.75-.62-1.28.18-.52.76-.8,1.28-.62,2.6.91,5.64,1.07,8.9.56,3.37-.53,6.96-1.79,10.54-3.71.49-.26,1.1-.07,1.36.41.26.49.08,1.1-.41,1.36-3.78,2.02-7.59,3.35-11.17,3.92-3.59.57-6.96.38-9.88-.64Z"/>
            <path class="st10" d="M195.27,207.19c-.34-.43-.27-1.06.16-1.41.43-.34,1.07-.27,1.41.17,1.61,2.03,3.99,3.45,7.04,3.95,2.87.47,6.34.13,10.33-1.25.52-.18,1.09.1,1.27.62.18.52-.1,1.09-.62,1.27-4.33,1.5-8.12,1.86-11.31,1.34-3.57-.58-6.37-2.27-8.29-4.69Z"/>
            <path class="st10" d="M166.88,152.28c-.24-.28-.22-.7.06-.95.28-.24.7-.21.94.06,5.1,5.83,5.31,7.44,5.31,7.45,0,.06.01.12,0,.18h0s-1.25,10.05,6.84,11.71l.4.08c3.9.69,6.71-.41,8.62-2.06,1.92-1.66,2.95-3.86,3.26-5.38l.03-.14c.07-.37.41-.61.78-.54.37.07.61.41.54.78l-.04.18c-.35,1.73-1.52,4.24-3.7,6.12-2.18,1.88-5.36,3.14-9.73,2.37h-.03c-.08-.02-.21-.05-.41-.09-8.79-1.79-8.03-11.9-7.92-13.06-.1-.32-.75-1.87-4.98-6.7Z"/>
            <path class="st10" d="M211.28,165.32c.04-.37.37-.63.74-.6.37.04.64.37.6.74-.01.1-.02.2-.02.3h0c-.05,1.49.58,3.6,1.99,5.42,1.41,1.83,3.61,3.36,6.69,3.7.28.03.56.05.84.06,6.95.25,9.28-7.24,9.29-7.26.08-.25.3-.42.54-.46l37.31-5.51c.28-.04.55.1.68.34-.46.34-.91.72-1.33,1.11l-36.08,5.32c-.64,1.68-3.53,8.04-10.47,7.79-.33-.01-.64-.03-.93-.07-3.5-.38-6-2.13-7.6-4.21-1.61-2.09-2.33-4.53-2.26-6.29,0-.14.02-.27.03-.39Z"/>
            <path class="st15" d="M186.65,137.41c3.83.27,10.99-.66,13.1-2.01,1.87-1.19,1.76-4.36.14-6.21.21,1.42-.19,2.9-1.32,3.71-1.72,1.23-6.77,2.44-10.67,2.86-1.5.16-2.82.21-3.72.1-.07.34-.07.62.03.81.2.41,1.12.64,2.44.73Z"/>
            <path class="st15" d="M227.29,129.7c-3.42.8-4.44,5.9-1.95,7.48,2.76,1.76,14.13,2.81,15.45,1.4-3.81.05-11.07-1.36-13.2-2.85-1.81-1.27-1.76-4.26-.3-6.03Z"/>
            <path class="st8" d="M236.4,177.31c5.19,0,9.4,2.6,9.4,5.81s-4.21,5.81-9.4,5.81-9.4-2.6-9.4-5.81,4.21-5.81,9.4-5.81Z"/>
            <path class="st8" d="M200.07,131.53c0-.37.3-.67.67-.67s.67.3.67.67c0,1.16-.39,2.37-1.29,3.42-.76.88-1.87,1.65-3.43,2.19-3.21,1.11-12.08.51-12.11.51-.37-.02-.65-.34-.63-.71.02-.37.34-.65.71-.63.02,0,8.64.58,11.59-.44,1.31-.45,2.24-1.09,2.85-1.8.67-.79.96-1.68.96-2.55Z"/>
            <path class="st8" d="M223.65,133.31c0-.37.3-.67.67-.67s.67.3.67.67c0,.87.29,1.76.96,2.54.61.72,1.54,1.35,2.85,1.8,2.95,1.02,11.56.44,11.59.44.37-.02.69.26.71.63s-.26.69-.63.71c-.03,0-8.89.6-12.11-.51-1.55-.54-2.67-1.31-3.43-2.19-.9-1.05-1.29-2.25-1.29-3.42Z"/>
          </g>
        </g>
      </g>
    </g>
    <polyline class="st21" points="272.32 199.46 259.23 245.64 252.01 252.2 265.82 198.07"/>
    <g>
      <g>
        <path class="st0" d="M90.51,108.36c-1.87.69-3.64.93-5.33.72-1.68-.2-3.23-.71-4.64-1.53-1.41-.81-2.63-1.81-3.66-3.01-1.03-1.19-1.8-2.43-2.31-3.71-.25-.62-.19-1.25.17-1.88.36-.63.91-1.21,1.64-1.74.73-.53,1.52-.95,2.37-1.28,1.12-.43,2.2-.62,3.24-.58,1.04.04,1.7.44,1.98,1.2.42,1.13.92,1.98,1.51,2.56.59.58,1.07.8,1.44.66.49-.18.66-.79.51-1.84-.15-1.05-.59-2.58-1.32-4.59-.5-1.39-1.16-2.86-1.98-4.43-.82-1.57-1.6-3.04-2.34-4.36-.98-1.74-1.63-2.95-1.88-3.62-.31-.83-.19-1.64.35-2.44s1.32-1.51,2.33-2.14c1.01-.63,2.06-1.14,3.15-1.52,1.09-.38,2.09-.6,2.98-.66.9-.06,1.5.1,1.81.47,1.43,1.91,2.4,3.31,2.95,4.18.7,1.11,1.4,2.46,2.07,4.05.67,1.59,1.5,3.88,2.5,6.87.8,2.39,1.1,4.61.93,6.65-.17,2.04-.68,3.87-1.5,5.49-.83,1.62-1.86,2.97-3.1,4.07-1.24,1.1-2.54,1.9-3.89,2.39ZM81.96,74.51c-1.61.57-2.99.86-4.16.85-1.17,0-2.12-.22-2.84-.65-.72-.42-1.21-.98-1.47-1.66-.41-1.11-.18-2.36.73-3.75.9-1.39,2.57-2.63,4.88-3.46,2.35-.84,4.46-.96,6.08-.48,1.62.48,2.62,1.29,2.99,2.41.23.69.19,1.44-.14,2.25-.33.81-.99,1.6-1.98,2.38-.99.78-2.36,1.48-4.11,2.11Z"/>
        <path class="st0" d="M118.56,99.1c-2.54.75-4.92.87-7.15.35-2.23-.52-4.27-1.51-6.13-2.98-1.86-1.47-3.49-3.26-4.88-5.39-1.4-2.13-2.51-4.43-3.34-6.92-.86-2.58-1.36-5.19-1.5-7.85-.14-2.66.13-5.18.84-7.55.7-2.38,1.87-4.46,3.51-6.24,1.64-1.78,3.78-3.07,6.41-3.84,2.69-.8,5.26-.86,7.7-.2,2.43.66,4.64,1.84,6.61,3.53,1.97,1.69,3.65,3.73,5.05,6.11,1.4,2.38,2.43,4.9,3.11,7.55.64,2.46.93,4.92.91,7.37-.02,2.46-.43,4.76-1.22,6.9-.78,2.14-1.98,4.01-3.6,5.62-1.62,1.61-3.72,2.78-6.32,3.55ZM114.6,85.8c.86-.25,1.45-.84,1.77-1.76.32-.92.44-2.03.35-3.33-.09-1.3-.32-2.61-.71-3.96-.45-1.57-1.03-3-1.73-4.29-.71-1.29-1.49-2.27-2.35-2.95-.86-.67-1.74-.88-2.63-.61-.83.25-1.4.86-1.7,1.85-.3.98-.4,2.16-.3,3.53.1,1.37.37,2.76.8,4.17.43,1.41.99,2.73,1.68,3.95.69,1.22,1.44,2.16,2.26,2.82.82.66,1.67.86,2.55.6Z"/>
        <path class="st0" d="M147.33,91.6c-2.24.51-4.4.71-6.5.6-2.1-.11-3.9-.63-5.43-1.56-1.53-.93-2.55-2.37-3.05-4.31-.32-1.24-.38-2.45-.17-3.64.21-1.19.63-2.52,1.28-3.98-1.96-.16-3.1-.86-3.42-2.12-.24-.93-.05-2.02.59-3.26.63-1.24,1.48-2.44,2.52-3.61-1.38-.71-2.51-1.61-3.39-2.7-.88-1.09-1.49-2.27-1.81-3.55-.4-1.56-.36-3.18.14-4.84.49-1.66,1.46-3.17,2.9-4.52,1.45-1.34,3.44-2.34,5.9-2.88,1.74-.38,3.31-.51,4.64-.45,1.33.06,2.43.18,3.31.36.88.18,1.53.22,1.96.13.38-.08.67-.31.85-.69.18-.38.22-1,.19-1.79-.01-.33.21-.64.63-.88.42-.25.92-.43,1.5-.55.69-.14,1.38-.16,2.06-.06.68.1,1.11.38,1.29.85.03.07.04.1.07.17.06.17.11.39.16.66.16.81.02,1.69-.4,2.64-.43.95-.95,1.88-1.58,2.81,1.42,1.48,2.3,3.11,2.65,4.89.29,1.49.17,2.98-.35,4.48-.52,1.5-1.51,2.84-2.96,4.02-1.45,1.19-3.41,2.04-5.9,2.59-.66.15-1.15.25-1.47.3-.32.05-.79.15-1.41.29-.74.17-1.26.36-1.57.57-.31.21-.44.41-.4.58.07.29.56.48,1.48.58.92.1,2.1-.01,3.56-.33.61-.14,1.13-.26,1.55-.37.42-.11,1-.25,1.76-.41,3-.64,5.6-.64,7.79-.04,2.8.77,4.49,2.67,5.06,5.66.33,1.76.15,3.42-.54,4.97-.69,1.56-1.72,2.95-3.09,4.2-1.37,1.25-2.96,2.32-4.77,3.21-1.81.89-3.68,1.55-5.6,1.99ZM145.42,81.2c2.84-.67,4.97-1.43,6.31-2.21,1.34-.78,1.96-1.43,1.85-1.97-.08-.37-.55-.63-1.42-.79-.87-.16-2.15-.06-3.84.3-.86.2-1.29.3-2.16.5-1.91.49-3.31,1.07-4.18,1.73-.87.67-1.24,1.25-1.12,1.75.09.4.53.69,1.3.88.77.18,1.87.13,3.24-.2ZM144.9,63.59c.63-.14,1.04-.42,1.24-.84.2-.43.25-.92.13-1.48-.28-1.29-1.1-2.56-2.49-3.8-1.39-1.24-2.95-1.81-4.39-1.52-.57.11-.98.46-1.16.92-.19.46-.21.98-.07,1.58.28,1.23,1.07,2.45,2.36,3.67,1.29,1.22,2.68,1.72,4.19,1.52.08-.02.11-.02.19-.04Z"/>
        <path class="st0" d="M178,85.73c-2.6.41-4.95.21-7.08-.6-2.13-.81-4.01-2.06-5.64-3.77-1.64-1.7-3.01-3.7-4.11-5.99-1.1-2.3-1.9-4.73-2.39-7.3-.51-2.67-.67-5.33-.47-7.98.2-2.65.8-5.11,1.8-7.37,1-2.26,2.42-4.17,4.26-5.72,1.84-1.54,4.12-2.54,6.8-2.96,2.75-.43,5.3-.16,7.61.82,2.31.97,4.33,2.43,6.06,4.37,1.73,1.94,3.12,4.18,4.18,6.73,1.07,2.54,1.76,5.18,2.09,7.89.31,2.52.28,5-.06,7.43-.34,2.43-1.04,4.66-2.09,6.68-1.05,2.02-2.47,3.72-4.28,5.09-1.8,1.38-4.02,2.26-6.68,2.68ZM175.83,72.03c.88-.14,1.53-.64,1.97-1.51.43-.87.69-1.96.77-3.25.08-1.3.02-2.63-.19-4.02-.24-1.62-.62-3.11-1.15-4.48-.53-1.37-1.17-2.45-1.93-3.23-.76-.78-1.6-1.1-2.51-.96-.85.13-1.49.67-1.91,1.61-.42.94-.67,2.09-.75,3.46-.08,1.37,0,2.78.25,4.24.24,1.46.62,2.83,1.14,4.13.52,1.3,1.14,2.33,1.87,3.09.72.76,1.53,1.07,2.43.93Z"/>
        <path class="st0" d="M227.11,80.52c-1.42.07-2.76.09-4,.05-1.25-.04-2.16-.09-2.72-.18-4.44-.8-7.92-2.52-10.46-5.22-2.55-2.7-4.01-5.73-4.32-9.14-.23-2.45.2-4.91,1.3-7.38,1.1-2.47,2.95-4.69,5.57-6.63,2.61-1.94,6.03-3.41,10.24-4.35-.07-2.42-.16-4.58-.08-6.26.04-.9.71-1.67,1.88-2.21,1.18-.54,2.52-.85,4.03-.91,1.55-.06,3,.15,4.34.65,1.34.5,2.19,1.35,2.41,2.45.63,3.07.88,7.16,1.01,11.9.13,4.62.03,9.31-.27,14.05-.3,4.74-.85,8.49-1.64,11.23-.26.64-1.11,1.1-2.54,1.39-1.43.29-3.01.48-4.73.56ZM221.8,69.66c.57-.03.98-.66,1.21-1.87.23-1.21.31-2.5.24-3.86-.07-1.2-.24-2.22-.51-3.08-.28-.85-.68-1.3-1.14-1.29-.66.01-1.26.34-1.71.9-.45.56-.78,1.27-.98,2.12-.21.85-.28,1.72-.22,2.6.07,1.08.35,2.06.84,2.93.49.88,1.21,1.39,2.17,1.55.05,0,.07,0,.12,0Z"/>
        <path class="st0" d="M253.76,80.17c-2.63-.02-4.91-.6-6.86-1.75-1.96-1.15-3.6-2.69-4.93-4.64-1.33-1.95-2.36-4.14-3.06-6.58-.7-2.44-1.1-4.97-1.16-7.59-.07-2.71.21-5.36.84-7.95.63-2.58,1.62-4.91,2.97-6.98,1.35-2.07,3.05-3.72,5.12-4.94,2.06-1.22,4.46-1.83,7.17-1.81,2.78.02,5.24.71,7.35,2.05,2.12,1.34,3.87,3.11,5.25,5.3,1.38,2.19,2.39,4.63,3.02,7.32.64,2.68.89,5.39.77,8.13-.11,2.54-.54,4.97-1.27,7.32-.73,2.34-1.79,4.42-3.15,6.25-1.36,1.82-3.04,3.26-5.04,4.33-2,1.06-4.33,1.58-7.01,1.55ZM253.86,66.3c.89,0,1.61-.38,2.18-1.17.57-.79,1-1.82,1.29-3.08.29-1.26.45-2.6.47-3.99.03-1.63-.1-3.17-.4-4.61-.3-1.44-.75-2.61-1.37-3.5-.62-.89-1.39-1.35-2.31-1.35-.86,0-1.57.42-2.14,1.27-.57.85-1,1.95-1.3,3.29-.3,1.34-.45,2.74-.45,4.22,0,1.48.15,2.9.45,4.27.3,1.37.74,2.49,1.33,3.35.59.87,1.33,1.31,2.24,1.31Z"/>
        <path class="st0" d="M293.3,47.33c-1.65-.15-3-.46-4.04-.96-1.04-.5-1.81-1.09-2.29-1.78s-.7-1.39-.64-2.12c.09-1.18.82-2.21,2.22-3.1,1.4-.89,3.4-1.32,5.82-1.1,2.43.22,4.37.99,5.63,2.1,1.26,1.12,1.83,2.26,1.71,3.44-.08.72-.43,1.38-1.06,1.98-.63.6-1.55,1.04-2.78,1.34-1.22.3-2.74.36-4.57.2ZM289.82,81.96c-.98-.09-1.81-.28-2.49-.58-.68-.3-1.05-.74-1.1-1.32-.23-3.73-.35-7.87-.35-12.42,0-4.55.14-8.85.44-12.89.08-1.04.12-1.55.19-2.59.05-.69.43-1.23,1.14-1.63.71-.4,1.6-.67,2.68-.81,1.08-.14,2.18-.16,3.32-.06,1.09.1,2.12.3,3.1.6.97.3,1.75.69,2.33,1.16.58.47.83,1.01.77,1.62-.19,1.82-.44,4.08-.76,6.78-.41,3.4-.8,6.89-1.17,10.47-.21,2.04-.36,3.94-.49,5.68-.1,1.43-.22,2.79-.36,4.06-.05.47-.46.86-1.24,1.18-.78.32-1.72.54-2.82.67-1.1.13-2.16.16-3.18.07Z"/>
        <path class="st0" d="M317.83,85.03c-1.41-.21-2.73-.45-3.95-.73-1.22-.28-2.1-.51-2.64-.7-4.2-1.66-7.28-4.02-9.25-7.16-1.97-3.14-2.81-6.41-2.46-9.81.26-2.45,1.15-4.78,2.72-6.98,1.57-2.2,3.81-4.02,6.76-5.42,2.94-1.4,6.59-2.17,10.91-2.26.41-2.39.74-4.52,1.15-6.16.22-.87,1.02-1.5,2.28-1.8,1.26-.3,2.64-.34,4.14-.1,1.54.24,2.92.74,4.14,1.49,1.22.75,1.89,1.75,1.9,2.88.02,3.13-.53,7.2-1.33,11.87-.78,4.56-1.79,9.13-3.01,13.73-1.22,4.59-2.49,8.16-3.81,10.69-.38.58-1.31.86-2.77.87-1.47,0-3.05-.12-4.76-.38ZM314.73,73.34c.57.08,1.09-.45,1.55-1.6.46-1.15.79-2.39.99-3.74.17-1.19.2-2.23.1-3.12-.11-.89-.41-1.41-.87-1.49-.65-.12-1.31.09-1.86.55-.55.46-1.01,1.09-1.38,1.88-.37.8-.61,1.63-.73,2.51-.14,1.07-.06,2.09.25,3.04s.92,1.6,1.83,1.95c.05,0,.07.01.12.02Z"/>
        <path class="st0" d="M344.13,89.91c-2.58-.54-4.72-1.55-6.42-3.07-1.7-1.51-3.02-3.35-3.95-5.52-.93-2.17-1.51-4.52-1.73-7.06-.21-2.53-.11-5.09.34-7.67.46-2.68,1.25-5.22,2.38-7.63,1.13-2.41,2.55-4.5,4.28-6.26,1.73-1.76,3.73-3.05,6.01-3.84,2.27-.79,4.75-.92,7.42-.36,2.73.57,5.02,1.73,6.85,3.46,1.83,1.73,3.21,3.81,4.14,6.23.94,2.42,1.45,5.02,1.55,7.77.1,2.76-.18,5.47-.83,8.12-.6,2.47-1.5,4.77-2.68,6.93-1.18,2.15-2.63,3.99-4.33,5.51-1.7,1.52-3.64,2.6-5.82,3.25-2.18.65-4.58.69-7.22.14ZM346.93,76.32c.87.18,1.67-.06,2.38-.72.72-.66,1.34-1.58,1.88-2.77.53-1.18.95-2.46,1.25-3.82.35-1.6.52-3.13.51-4.6,0-1.47-.23-2.71-.67-3.7-.43-1-1.11-1.59-2.01-1.78-.84-.18-1.63.1-2.36.83-.73.73-1.37,1.72-1.92,2.97-.56,1.25-.98,2.6-1.27,4.05-.29,1.45-.42,2.87-.39,4.27.03,1.4.25,2.58.65,3.55.41.97,1.06,1.54,1.95,1.73Z"/>
        <path class="st0" d="M377.35,97.46c-3.45-.99-6.36-2.42-8.78-4.33-2.41-1.91-4.36-4.39-5.84-7.45-.16-.36-.19-.76-.09-1.18.17-.69.61-1.38,1.33-2.07.72-.69,1.56-1.23,2.53-1.6.97-.37,1.93-.44,2.86-.2.54.14,1.06.41,1.54.8,1.02.88,2.15,1.71,3.38,2.51,1.24.79,2.33,1.33,3.29,1.6.76.21,1.37.24,1.82.08.45-.16.74-.43.85-.83.17-.61-.05-1.4-.68-2.37-.63-.97-1.67-1.96-3.1-2.85-1.37-.86-2.76-1.76-4.08-2.73-1.32-.97-2.48-2.03-3.49-3.19-1-1.16-1.72-2.45-2.14-3.88-.42-1.43-.42-3.05.02-4.84.36-1.45,1.07-2.8,2.14-4.03,1.07-1.23,2.43-2.26,4.08-3.05,1.64-.8,3.52-1.3,5.61-1.48,2.1-.19,4.32.04,6.65.69,1.85.52,3.68,1.31,5.47,2.38,1.8,1.07,3.43,2.42,4.88,4.06,1.45,1.64,2.58,3.55,3.4,5.75.31.9.34,1.72.11,2.45-.3.94-.93,1.7-1.88,2.29-.95.59-1.99.97-3.11,1.15-1.12.18-2.09.15-2.91-.1-.57-.17-1.04-.47-1.34-.9-.25-.35-.81-.97-1.69-1.81-.88-.84-1.88-1.69-2.99-2.53-1.11-.84-2.1-1.38-2.95-1.62-.89-.25-1.46-.03-1.61.6-.18.76.24,1.67,1.18,2.64.94.97,2.16,2.04,3.63,3.23,1.22.99,2.45,2.06,3.68,3.22,1.23,1.16,2.31,2.42,3.25,3.77.94,1.35,1.59,2.8,1.95,4.34.36,1.54.26,3.18-.3,4.92-.67,2.1-1.89,3.75-3.65,4.96-1.76,1.21-3.79,1.95-6.09,2.23-2.31.28-4.62.08-6.95-.59Z"/>
        <path class="st0" d="M405.1,107.06c-2.51-.9-4.5-2.2-6-3.93-1.5-1.74-2.57-3.74-3.2-6.02-.64-2.28-.9-4.69-.77-7.23.13-2.54.58-5.06,1.38-7.56.83-2.59,1.96-5,3.41-7.23,1.45-2.23,3.16-4.1,5.12-5.61,1.97-1.51,4.14-2.5,6.52-2.97,2.38-.47,4.87-.25,7.46.68,2.65.95,4.79,2.41,6.38,4.38,1.59,1.97,2.69,4.23,3.3,6.76.61,2.53.77,5.18.51,7.93-.27,2.75-.91,5.39-1.92,7.94-.93,2.36-2.15,4.52-3.62,6.49-1.47,1.97-3.17,3.58-5.07,4.85-1.91,1.27-3.99,2.07-6.25,2.41-2.27.34-4.67.05-7.24-.87ZM409.73,93.98c.85.3,1.67.18,2.48-.38s1.55-1.38,2.25-2.48c.69-1.1,1.28-2.3,1.76-3.61.56-1.53.94-3.03,1.13-4.49.19-1.46.13-2.72-.17-3.77-.3-1.05-.89-1.73-1.77-2.05-.82-.29-1.64-.13-2.47.49-.83.62-1.6,1.51-2.32,2.67-.73,1.16-1.33,2.44-1.81,3.84-.48,1.39-.8,2.79-.96,4.18-.16,1.39-.1,2.6.18,3.61.28,1.02.85,1.68,1.72,1.99Z"/>
      </g>
      <g>
        <path class="st17" d="M87.89,102.94c-1.87.69-3.64.93-5.33.72-1.68-.2-3.23-.71-4.64-1.53-1.41-.81-2.63-1.81-3.66-3.01-1.03-1.19-1.8-2.43-2.31-3.71-.25-.62-.19-1.25.17-1.88.36-.63.91-1.21,1.64-1.74.73-.53,1.52-.95,2.37-1.28,1.12-.43,2.2-.62,3.24-.58,1.04.04,1.7.44,1.98,1.2.42,1.13.92,1.98,1.51,2.56.59.58,1.07.8,1.44.66.49-.18.66-.79.51-1.84-.15-1.05-.59-2.58-1.32-4.59-.5-1.39-1.16-2.86-1.98-4.43-.82-1.57-1.6-3.04-2.34-4.36-.98-1.74-1.63-2.95-1.88-3.62-.31-.83-.19-1.64.35-2.44.54-.8,1.32-1.51,2.33-2.14,1.01-.63,2.06-1.14,3.15-1.52,1.09-.38,2.09-.6,2.98-.66.9-.06,1.5.1,1.81.47,1.43,1.91,2.4,3.31,2.95,4.18.7,1.11,1.4,2.46,2.07,4.05.67,1.59,1.5,3.88,2.5,6.87.8,2.39,1.1,4.61.93,6.65-.17,2.04-.68,3.87-1.5,5.49-.83,1.62-1.86,2.97-3.1,4.07-1.24,1.1-2.54,1.9-3.89,2.39ZM79.34,69.09c-1.61.57-2.99.86-4.16.85-1.17,0-2.12-.22-2.84-.65-.72-.42-1.21-.98-1.47-1.66-.41-1.11-.18-2.36.73-3.75.9-1.39,2.57-2.63,4.88-3.46,2.35-.84,4.46-.96,6.08-.48,1.62.48,2.62,1.29,2.99,2.41.23.69.19,1.44-.14,2.25-.33.81-.99,1.6-1.98,2.38-.99.78-2.36,1.48-4.11,2.11Z"/>
        <path class="st17" d="M115.94,93.67c-2.54.75-4.92.87-7.15.35-2.23-.52-4.27-1.51-6.13-2.98-1.86-1.47-3.49-3.26-4.88-5.39-1.4-2.13-2.51-4.43-3.34-6.92-.86-2.58-1.36-5.19-1.5-7.85-.14-2.66.13-5.18.84-7.55.7-2.38,1.87-4.46,3.51-6.24,1.64-1.78,3.78-3.07,6.41-3.84,2.69-.8,5.26-.86,7.7-.2,2.43.66,4.64,1.84,6.61,3.53,1.97,1.69,3.65,3.73,5.05,6.11,1.4,2.38,2.43,4.9,3.11,7.55.64,2.46.93,4.92.91,7.37-.02,2.46-.43,4.76-1.22,6.9-.78,2.14-1.98,4.01-3.6,5.62-1.62,1.61-3.72,2.78-6.32,3.55ZM111.98,80.38c.86-.25,1.45-.84,1.77-1.76.32-.92.44-2.03.35-3.33-.09-1.3-.32-2.61-.71-3.96-.45-1.57-1.03-3-1.73-4.29-.71-1.29-1.49-2.27-2.35-2.95-.86-.67-1.74-.88-2.63-.61-.83.25-1.4.86-1.7,1.85-.3.98-.4,2.16-.3,3.53.1,1.37.37,2.76.8,4.17.43,1.41.99,2.73,1.68,3.95.69,1.22,1.44,2.16,2.26,2.82.82.66,1.67.86,2.55.6Z"/>
        <path class="st17" d="M144.71,86.17c-2.24.51-4.4.71-6.5.6-2.1-.11-3.9-.63-5.43-1.56-1.53-.93-2.55-2.37-3.05-4.31-.32-1.24-.38-2.45-.17-3.64.21-1.19.63-2.52,1.28-3.98-1.96-.16-3.1-.86-3.42-2.12-.24-.93-.05-2.02.59-3.26.63-1.24,1.48-2.44,2.52-3.61-1.38-.71-2.51-1.61-3.39-2.7-.88-1.09-1.49-2.27-1.81-3.55-.4-1.56-.36-3.18.14-4.84.49-1.66,1.46-3.17,2.9-4.52,1.45-1.34,3.44-2.34,5.9-2.88,1.74-.38,3.31-.51,4.64-.45,1.33.06,2.43.18,3.31.36.88.18,1.53.22,1.96.13.38-.08.67-.31.85-.69.18-.38.22-1,.19-1.79-.01-.33.21-.64.63-.88.42-.25.92-.43,1.5-.55.69-.14,1.38-.16,2.06-.06.68.1,1.11.38,1.29.85.03.07.04.1.07.17.06.17.11.39.16.66.16.81.02,1.69-.4,2.64-.42.95-.95,1.88-1.58,2.81,1.42,1.48,2.3,3.11,2.65,4.89.29,1.49.17,2.98-.35,4.48-.52,1.5-1.51,2.84-2.96,4.02-1.45,1.19-3.41,2.04-5.9,2.59-.66.15-1.15.25-1.47.3-.32.05-.79.15-1.41.29-.74.17-1.26.36-1.57.57-.31.21-.44.41-.4.58.07.29.56.48,1.48.58.92.1,2.1-.01,3.56-.33.61-.14,1.13-.26,1.55-.37.42-.11,1-.25,1.76-.41,3-.64,5.6-.64,7.79-.04,2.8.77,4.49,2.67,5.06,5.66.33,1.76.15,3.42-.54,4.97-.69,1.56-1.72,2.95-3.09,4.2-1.37,1.25-2.96,2.32-4.77,3.21-1.81.89-3.68,1.55-5.6,1.99ZM142.8,75.77c2.84-.67,4.97-1.43,6.31-2.21,1.34-.78,1.96-1.43,1.85-1.97-.08-.37-.55-.63-1.42-.79-.87-.16-2.15-.06-3.84.3-.86.2-1.29.3-2.16.5-1.91.49-3.31,1.07-4.18,1.73-.87.67-1.24,1.25-1.12,1.75.09.4.53.69,1.3.88.77.18,1.87.13,3.24-.2ZM142.27,58.17c.63-.14,1.04-.42,1.24-.84.2-.43.25-.92.13-1.48-.28-1.29-1.1-2.56-2.49-3.8-1.39-1.24-2.95-1.81-4.39-1.52-.57.11-.98.46-1.16.92-.19.46-.21.98-.07,1.58.28,1.23,1.07,2.45,2.36,3.67,1.29,1.22,2.68,1.72,4.19,1.52.08-.02.11-.02.19-.04Z"/>
        <path class="st17" d="M175.38,80.3c-2.6.41-4.95.21-7.08-.6-2.13-.81-4.01-2.06-5.64-3.77-1.64-1.7-3.01-3.7-4.11-5.99-1.1-2.3-1.9-4.73-2.39-7.3-.51-2.67-.67-5.33-.47-7.98.2-2.65.8-5.11,1.8-7.37,1-2.26,2.42-4.17,4.26-5.72,1.84-1.54,4.12-2.54,6.8-2.96,2.75-.43,5.3-.16,7.61.82,2.31.97,4.33,2.43,6.06,4.37,1.73,1.94,3.12,4.18,4.18,6.73,1.07,2.54,1.76,5.18,2.09,7.89.31,2.52.28,5-.06,7.43-.34,2.43-1.04,4.66-2.09,6.68-1.05,2.02-2.47,3.72-4.28,5.09-1.8,1.38-4.02,2.26-6.68,2.68ZM173.2,66.6c.88-.14,1.53-.64,1.97-1.51.43-.87.69-1.96.77-3.25.08-1.3.02-2.63-.19-4.02-.24-1.62-.62-3.11-1.15-4.48-.53-1.37-1.17-2.45-1.93-3.23-.76-.78-1.6-1.1-2.51-.96-.85.13-1.49.67-1.91,1.61-.42.94-.67,2.09-.75,3.46-.08,1.37,0,2.78.25,4.24.24,1.46.62,2.83,1.14,4.13.52,1.3,1.14,2.33,1.87,3.09.72.76,1.53,1.07,2.43.93Z"/>
        <path class="st17" d="M224.49,75.1c-1.42.07-2.76.09-4,.05-1.25-.04-2.16-.09-2.72-.18-4.44-.8-7.92-2.52-10.46-5.22-2.55-2.7-4.01-5.73-4.32-9.14-.23-2.45.2-4.91,1.3-7.38,1.1-2.47,2.95-4.69,5.57-6.63,2.61-1.94,6.03-3.41,10.24-4.35-.07-2.42-.16-4.58-.08-6.26.04-.9.71-1.67,1.88-2.21,1.18-.54,2.52-.85,4.03-.91,1.55-.06,3,.15,4.34.65,1.34.5,2.19,1.35,2.41,2.45.63,3.07.88,7.16,1.01,11.9.13,4.62.03,9.31-.27,14.05-.3,4.74-.85,8.49-1.64,11.23-.26.64-1.11,1.1-2.54,1.39-1.43.29-3.01.48-4.73.56ZM219.18,64.24c.57-.03.98-.66,1.21-1.87.23-1.21.31-2.5.24-3.86-.07-1.2-.24-2.22-.51-3.08-.28-.85-.68-1.3-1.14-1.29-.66.01-1.26.34-1.71.9-.45.56-.78,1.27-.98,2.12-.21.85-.28,1.72-.22,2.6.07,1.08.35,2.06.84,2.93.49.88,1.21,1.39,2.17,1.55.05,0,.07,0,.12,0Z"/>
        <path class="st17" d="M251.14,74.75c-2.63-.02-4.91-.6-6.86-1.75-1.96-1.15-3.6-2.69-4.93-4.64-1.33-1.95-2.36-4.14-3.06-6.58-.7-2.44-1.1-4.97-1.16-7.59-.07-2.71.21-5.36.84-7.95.63-2.58,1.62-4.91,2.97-6.98,1.35-2.07,3.05-3.72,5.12-4.94,2.06-1.22,4.46-1.83,7.17-1.81,2.78.02,5.24.71,7.35,2.05,2.12,1.34,3.87,3.11,5.25,5.3,1.38,2.19,2.39,4.63,3.02,7.32.64,2.68.89,5.39.77,8.13-.11,2.54-.54,4.97-1.27,7.32-.73,2.34-1.79,4.42-3.15,6.25-1.36,1.82-3.04,3.26-5.04,4.33-2,1.06-4.33,1.58-7.01,1.55ZM251.23,60.87c.89,0,1.61-.38,2.18-1.17.57-.79,1-1.82,1.29-3.08.29-1.26.45-2.6.47-3.99.03-1.63-.1-3.17-.4-4.61-.3-1.44-.75-2.61-1.37-3.5-.62-.89-1.39-1.35-2.31-1.35-.86,0-1.57.42-2.14,1.27-.57.85-1,1.95-1.3,3.29-.3,1.34-.45,2.74-.45,4.22,0,1.48.15,2.9.45,4.27.3,1.37.74,2.49,1.33,3.35.59.87,1.33,1.31,2.24,1.31Z"/>
        <path class="st17" d="M290.68,41.91c-1.65-.15-3-.46-4.04-.96-1.04-.5-1.81-1.09-2.29-1.78-.48-.69-.7-1.39-.64-2.12.09-1.18.82-2.21,2.22-3.1,1.4-.89,3.4-1.32,5.82-1.1,2.43.22,4.37.99,5.63,2.1,1.26,1.12,1.83,2.26,1.71,3.44-.08.72-.43,1.38-1.06,1.98-.63.6-1.55,1.04-2.78,1.34-1.22.3-2.74.36-4.57.2ZM287.2,76.54c-.98-.09-1.81-.28-2.49-.58-.68-.3-1.05-.74-1.1-1.32-.23-3.73-.35-7.87-.35-12.42,0-4.55.14-8.85.44-12.89.08-1.04.12-1.55.19-2.59.05-.69.43-1.23,1.14-1.63.71-.4,1.6-.67,2.68-.81,1.08-.14,2.18-.16,3.32-.06,1.09.1,2.12.3,3.1.6s1.75.69,2.33,1.16c.58.47.83,1.01.77,1.62-.19,1.82-.44,4.08-.76,6.78-.41,3.4-.8,6.89-1.17,10.47-.21,2.04-.36,3.94-.49,5.68-.1,1.43-.22,2.79-.36,4.06-.05.47-.46.86-1.24,1.18-.78.32-1.72.54-2.82.67-1.1.13-2.16.16-3.18.07Z"/>
        <path class="st17" d="M315.2,79.6c-1.41-.21-2.73-.45-3.95-.73-1.22-.28-2.1-.51-2.64-.7-4.2-1.66-7.28-4.02-9.25-7.16-1.97-3.14-2.81-6.41-2.46-9.81.26-2.45,1.15-4.78,2.72-6.98,1.57-2.2,3.81-4.02,6.76-5.42,2.94-1.4,6.59-2.17,10.91-2.26.41-2.39.74-4.52,1.15-6.16.22-.87,1.02-1.5,2.28-1.8,1.26-.3,2.64-.34,4.14-.1,1.54.24,2.92.74,4.14,1.49,1.22.75,1.89,1.75,1.9,2.88.02,3.13-.53,7.2-1.33,11.87-.78,4.56-1.79,9.13-3.01,13.73-1.22,4.59-2.49,8.16-3.81,10.69-.38.58-1.31.86-2.77.87-1.47,0-3.05-.12-4.76-.38ZM312.11,67.92c.57.08,1.09-.45,1.55-1.6.46-1.15.79-2.39.99-3.74.17-1.19.2-2.23.1-3.12-.11-.89-.41-1.41-.87-1.49-.65-.12-1.31.09-1.86.55s-1.01,1.09-1.38,1.88c-.37.8-.61,1.63-.73,2.51-.14,1.07-.06,2.09.25,3.04.31.95.92,1.6,1.83,1.95.05,0,.07.01.12.02Z"/>
        <path class="st17" d="M341.5,84.48c-2.58-.54-4.72-1.55-6.42-3.07-1.7-1.51-3.02-3.35-3.95-5.52-.93-2.17-1.51-4.52-1.73-7.06-.21-2.53-.11-5.09.34-7.67.46-2.68,1.25-5.22,2.38-7.63,1.13-2.41,2.55-4.5,4.28-6.26,1.73-1.76,3.73-3.05,6.01-3.84,2.27-.79,4.75-.92,7.42-.36,2.73.57,5.02,1.73,6.85,3.46,1.83,1.73,3.21,3.81,4.14,6.23s1.45,5.02,1.55,7.77c.1,2.76-.18,5.47-.83,8.12-.6,2.47-1.5,4.77-2.68,6.93-1.18,2.15-2.63,3.99-4.33,5.51-1.7,1.52-3.64,2.6-5.82,3.25-2.18.65-4.58.69-7.22.14ZM344.31,70.89c.87.18,1.67-.06,2.38-.72.72-.66,1.34-1.58,1.88-2.77.53-1.18.95-2.46,1.25-3.82.35-1.6.52-3.13.51-4.6,0-1.47-.23-2.71-.67-3.7-.43-1-1.11-1.59-2.01-1.78-.84-.18-1.63.1-2.36.83-.73.73-1.37,1.72-1.92,2.97-.56,1.25-.98,2.6-1.27,4.05-.29,1.45-.42,2.87-.39,4.27.03,1.4.25,2.58.65,3.55.41.97,1.06,1.54,1.95,1.73Z"/>
        <path class="st17" d="M374.73,92.03c-3.45-.99-6.36-2.42-8.78-4.33-2.41-1.91-4.36-4.39-5.84-7.45-.16-.36-.19-.76-.09-1.18.17-.69.61-1.38,1.33-2.07.72-.69,1.56-1.23,2.53-1.6.97-.37,1.93-.44,2.86-.2.54.14,1.06.41,1.54.8,1.02.88,2.15,1.71,3.38,2.51,1.24.79,2.33,1.33,3.29,1.6.76.21,1.37.24,1.82.08.45-.16.74-.43.85-.83.17-.61-.05-1.4-.68-2.37-.63-.97-1.67-1.96-3.1-2.85-1.37-.86-2.76-1.76-4.08-2.73-1.32-.97-2.48-2.03-3.49-3.19-1-1.16-1.72-2.45-2.14-3.88-.42-1.43-.42-3.05.02-4.84.36-1.45,1.07-2.8,2.14-4.03,1.07-1.23,2.43-2.26,4.08-3.05,1.64-.8,3.52-1.3,5.61-1.48,2.1-.19,4.32.04,6.65.69,1.85.52,3.68,1.31,5.47,2.38,1.8,1.07,3.43,2.42,4.88,4.06,1.45,1.64,2.58,3.55,3.4,5.75.31.9.34,1.72.11,2.45-.3.94-.93,1.7-1.88,2.29-.95.59-1.99.97-3.11,1.15-1.12.18-2.09.15-2.91-.1-.57-.17-1.04-.47-1.34-.9-.25-.35-.81-.97-1.69-1.81-.88-.84-1.88-1.69-2.99-2.53-1.11-.84-2.1-1.38-2.95-1.62-.89-.25-1.46-.03-1.61.6-.18.76.24,1.67,1.18,2.64.94.97,2.16,2.04,3.63,3.23,1.22.99,2.45,2.06,3.68,3.22,1.23,1.16,2.31,2.42,3.25,3.77.94,1.35,1.59,2.8,1.95,4.34.36,1.54.26,3.18-.3,4.92-.67,2.1-1.89,3.75-3.65,4.96-1.76,1.21-3.79,1.95-6.09,2.23s-4.62.08-6.95-.59Z"/>
        <path class="st17" d="M402.48,101.63c-2.51-.9-4.5-2.2-6-3.93-1.5-1.74-2.57-3.74-3.2-6.02-.64-2.28-.9-4.69-.77-7.23.13-2.54.58-5.06,1.38-7.56.83-2.59,1.96-5,3.41-7.23,1.45-2.23,3.16-4.1,5.12-5.61,1.97-1.51,4.14-2.5,6.52-2.97,2.38-.47,4.87-.25,7.46.68,2.65.95,4.79,2.41,6.38,4.38,1.59,1.97,2.69,4.23,3.3,6.76.61,2.53.77,5.18.51,7.93-.27,2.75-.91,5.39-1.92,7.94-.93,2.36-2.15,4.52-3.62,6.49-1.47,1.97-3.17,3.58-5.07,4.85-1.91,1.27-3.99,2.07-6.25,2.41-2.27.34-4.67.05-7.24-.87ZM407.11,88.55c.85.3,1.67.18,2.48-.38.8-.56,1.55-1.38,2.25-2.48.69-1.1,1.28-2.3,1.76-3.61.56-1.53.94-3.03,1.13-4.49.19-1.46.13-2.72-.17-3.77-.3-1.05-.89-1.73-1.77-2.05-.82-.29-1.64-.13-2.47.49-.82.62-1.6,1.51-2.32,2.67-.73,1.16-1.33,2.44-1.81,3.84-.48,1.39-.8,2.79-.96,4.18-.16,1.39-.1,2.6.18,3.61.28,1.02.85,1.68,1.72,1.99Z"/>
      </g>
    </g>
  </g>
</svg>