<?xml version="1.0" encoding="UTF-8"?>
<svg id="Camada_1" xmlns="http://www.w3.org/2000/svg" version="1.1" viewBox="0 0 194.33 299.22">
  <!-- Generator: Adobe Illustrator 29.5.1, SVG Export Plug-In . SVG Version: 2.1.0 Build 141)  -->
  <defs>
    <style>
      .st0, .st1 {
        fill: #fff;
      }

      .st1, .st2, .st3 {
        fill-rule: evenodd;
      }

      .st4 {
        fill: #3fa6dc;
      }

      .st2 {
        fill: #0f0e0e;
      }

      .st3 {
        fill: #c5c5c5;
      }

      .st5 {
        fill: #72cbff;
      }
    </style>
  </defs>
  <g>
    <path class="st5" d="M92.57,283.93c.2,0,.4,0,.59,0,30.05,0,60.39-10.14,65.12-21.83,9.23-22.79-11.29-97.11-17.45-107.37-.37-.61-.17-1.41.44-1.77.61-.37,1.41-.17,1.77.44,3.54,5.9,11.45,31.23,16.25,56.83,5.82-.82,12.14-2.51,15.87-8.24,4.58-7.04,4.37-19.17-.62-36.05-7.75-26.2-27.85-44.76-39.68-53.81-10.12,8.62-23.22,13.84-37.53,13.84s-27.96-5.44-38.16-14.39c-11.71,8.83-32.49,27.6-40.4,54.35-4.99,16.88-5.2,29.01-.62,36.05,3.82,5.86,10.33,7.5,16.27,8.3.92-6.19,2.17-12.71,3.78-19.59,5.3-22.65,12.59-40.77,12.66-40.95.27-.66,1.02-.98,1.68-.71.66.27.98,1.02.71,1.68-.29.71-28.67,71.76-13.7,109.75,5.83,14.78,25.15,23.34,53.01,23.46Z"/>
    <path d="M92.56,286.52c.19,0,.38,0,.57,0,28.15,0,61.85-9.36,67.56-23.44,4.19-10.36,2.68-30.21-.91-50.29,6.06-.86,13.28-2.79,17.57-9.37,5.08-7.81,4.98-20.31-.31-38.19-7.86-26.57-28.04-45.44-40.2-54.82,11.35-10.59,18.47-25.66,18.47-42.37,0-31.96-26-57.96-57.96-57.96s-57.96,26-57.96,57.96c0,16.41,6.87,31.24,17.86,41.79-12.06,9.17-32.93,28.27-40.95,55.39-5.29,17.89-5.39,30.38-.31,38.19,4.4,6.76,11.91,8.62,18.06,9.45-2.72,20.1-1.69,36.38,3.11,48.56,6.24,15.82,26.43,24.97,55.4,25.1ZM53.26,150.72c.27-.66-.05-1.42-.71-1.68-.66-.26-1.41.05-1.68.71-.07.18-7.36,18.3-12.66,40.95-1.61,6.88-2.86,13.4-3.78,19.59-5.93-.8-12.45-2.43-16.27-8.3-4.58-7.04-4.37-19.17.62-36.05,7.91-26.75,28.69-45.52,40.4-54.35,10.2,8.95,23.55,14.39,38.16,14.39s27.41-5.22,37.53-13.84c11.83,9.05,31.93,27.6,39.68,53.81,4.99,16.88,5.2,29.01.62,36.05-3.73,5.73-10.04,7.42-15.87,8.24-4.79-25.6-12.71-50.93-16.25-56.83-.37-.61-1.16-.81-1.77-.44-.61.37-.81,1.16-.44,1.77,6.15,10.26,26.67,84.57,17.45,107.37-4.73,11.69-35.06,21.83-65.12,21.83-.2,0-.4,0-.59,0-27.86-.12-47.18-8.68-53.01-23.46-14.98-37.98,13.41-109.03,13.7-109.75ZM41.96,68.03c0-30.53,24.84-55.37,55.37-55.37s55.37,24.84,55.37,55.37-24.84,55.37-55.37,55.37-55.37-24.84-55.37-55.37Z"/>
    <path class="st5" d="M97.33,123.4c30.53,0,55.37-24.84,55.37-55.37S127.87,12.66,97.33,12.66s-55.37,24.84-55.37,55.37,24.84,55.37,55.37,55.37Z"/>
    <path class="st4" d="M75.4,98.11c-28.57-27.7-21.15-56.9-13.89-72.22-11.94,10.16-19.55,25.27-19.55,42.14,0,30.53,24.84,55.37,55.37,55.37,19.37,0,36.43-10.02,46.32-25.13-22.01,12.26-48.39,19.09-68.26-.17Z"/>
    <path class="st4" d="M68.53,226.79c-8.15-44.13,7.25-85.65,14.85-102.57-9.1-2.26-17.37-6.64-24.21-12.63-2.57,1.94-5.59,4.39-8.81,7.26,5.44,2.75,7.77,8.62.67,17.35-11.4,14.04-21.88,50.53-27.11,71.04,3.25,1.77,6.96,2.57,10.49,3.04.92-6.19,2.17-12.71,3.78-19.59,5.3-22.65,12.59-40.77,12.66-40.95.27-.66,1.02-.98,1.68-.71.66.27.98,1.02.71,1.68-.29.71-28.67,71.76-13.7,109.75,5.83,14.78,25.15,23.34,53.01,23.46.2,0,.4,0,.59,0,20.43,0,40.97-4.69,53.53-11.36-33.4,3.6-71.18-7.98-78.17-45.78Z"/>
    <path class="st4" d="M140.99,153.08s.04.06.06.08c.07-.07.13-.15.22-.2.61-.37,1.41-.17,1.77.44,3.54,5.9,11.45,31.23,16.25,56.83,4.71-.66,9.72-1.93,13.44-5.41-20.59-63.57-41-62.65-31.74-51.75Z"/>
    <path class="st0" d="M149.78,85.65c1.87-5.54,2.92-11.45,2.92-17.61,0-30.53-24.84-55.37-55.37-55.37-8.27,0-16.09,1.87-23.14,5.13,14.38-1.61,37.58-1.74,54.31,10.34,19.51,14.1,23.1,39.71,21.28,57.5Z"/>
    <path class="st0" d="M18.77,165.95c-4.99,16.88-5.2,29.01-.62,36.05.16.24.34.43.51.66-.87-5.13-1.11-12.17.52-21.47,2.59-14.76,13.21-37.29,20.55-51.64-8.44,9.54-16.62,21.77-20.95,36.4Z"/>
    <g>
      <path class="st0" d="M174.58,202.75c.19-.25.4-.48.58-.75,4.58-7.04,4.37-19.17-.62-36.05-7.75-26.2-27.85-44.76-39.68-53.81,0,0,27.06,27.82,36.12,53.74,6.08,17.4,4.98,30.26,3.6,36.86Z"/>
      <path class="st0" d="M158.28,262.11c8.88-21.93-9.79-91.56-16.69-105.91-.46-.9-.76-1.45-.76-1.45,0,0,15.78,63.93,16.09,86.42.17,12.31-2.18,21.69-4.35,27.69,2.78-2.14,4.76-4.41,5.71-6.75Z"/>
    </g>
  </g>
  <g>
    <g>
      <path class="st2" d="M91.92,67.79c2.94-1.01,6.69-1.55,9.65-2.07,5.53-.99,10.99-2.02,16.46-3.33,8.27-1.97,20.23,3.82,26.85,8.59,5.15,3.71,9.89,8.94,11.65,15.17,1.34,4.76.8,10.68-3.79,13.55-1.98,1.24-4.29,1.56-6.57,1.11-2.07-.41-4.06-1.19-5.99-2.04-1.05-.46-4.69-2.24-6.31-2.6-.01.03-.02.06-.03.09-.91,2.87-2.54,5.6-4.62,7.78-1.33,1.39-2.86,2.58-4.56,3.47-3.27,1.73-6.9,2.22-10.51,1.39-4.31-.99-7.96-3.71-10.91-6.92-.87-.94-4.21-4.46-5.71-4.99-.47.32-1.24,1.18-1.52,1.49-1.33,1.47-2.57,2.96-3.98,4.36-2.81,2.79-6.38,4.59-10.39,4.7-7.9.22-13.89-5.88-17.12-12.51-.06-.13-.17-.34-.29-.54-1.38.6-4.3,2.45-5.21,2.91-4.78,2.44-9.59,2.82-14.25-.34-2.12-1.44-3.7-3.4-4.45-5.86-2.84-9.27,7.68-20.44,14.77-25.2,1.24-.84,2.67-1.02,4.09-.54,4.03,1.39,10,1.81,14.26,2.06,6.07.36,12.38.46,18.48.28Z"/>
      <path class="st3" d="M57.67,69.83c-7.59,5.1-18.46,17.85-10.3,23.39,9.31,6.32,16.41-10.3,21.31-.23,4.9,10.07,13.72,12.87,20.09,6.55,6.37-6.32,7.35-12.17,17.88-.7,10.53,11.47,20.33,3.74,22.78-3.98,2.45-7.73,10.53,0,17.63,1.4,7.1,1.41,9.06-11.47-4.9-21.53-4.53-3.26-15.94-9.54-23.06-7.84-13.32,3.18-22.51,4-26.29,5.5,0,0-25.33.81-35.14-2.56Z"/>
    </g>
    <path class="st1" d="M124.1,79.93c-16.11,6.08-34.79,6.85-52.94,2.21-6.62-1.69-13.17-4.1-19.5-7.24-5.86,5.99-10.4,14.17-4.29,18.32,9.31,6.32,16.41-10.3,21.31-.23,4.44,9.12,12.09,12.28,18.23,8.1.63-.44,1.25-.95,1.85-1.54,6.37-6.32,7.35-12.17,17.88-.7,1.62,1.76,3.21,3.06,4.77,3.99,6.36,3.78,12.04,1.18,15.4-3.09,1.18-1.49,2.07-3.19,2.61-4.89,2.45-7.73,10.53,0,17.63,1.4,1.16.23,2.18.08,3.02-.37,4.3-2.34,3.77-12.73-7.92-21.16-.68-.49-1.51-1.05-2.46-1.64-3.2,1.67-7.17,3.51-12.07,5.47-1.13.45-2.3.9-3.52,1.36Z"/>
  </g>
  <path class="st1" d="M127.84,51.96"/>
  <g>
    <path d="M129.5,48.39c-1.13-7.51-8.17-12.75-15.66-11.65-5.79.84-10.24,5.18-11.47,10.58-6.62-2.15-15.86-.94-21,.86-2.3-5.79-8.4-9.45-14.82-8.53-7.51,1.1-12.75,8.12-11.65,15.63.52,3.66,2.46,6.88,5.42,9.08,2.41,1.78,5.26,2.72,8.19,2.72.68,0,1.36-.03,2.04-.13,6.81-.99,11.78-6.86,11.81-13.56,3.74-1.6,14.48-3.27,19.87-.52.65,3.46,2.51,6.49,5.34,8.59,2.41,1.81,5.26,2.75,8.22,2.75.65,0,1.33-.05,2.02-.16,6.86-.99,11.83-6.91,11.83-13.64,0-.68-.05-1.34-.16-2.02ZM75.44,58.41c-1.36,1.83-3.38,3.01-5.63,3.35s-4.53-.24-6.36-1.6c-1.83-1.39-3.04-3.38-3.35-5.63-.68-4.69,2.57-9.03,7.23-9.71.42-.08.84-.1,1.26-.1,2.07,0,4.03.76,5.55,2.07,1.52,1.31,2.59,3.14,2.91,5.26.34,2.25-.24,4.53-1.6,6.36ZM122.69,55.51c-1.36,1.83-3.35,3.04-5.63,3.35-2.25.34-4.5-.24-6.36-1.6-1.83-1.36-3.01-3.38-3.35-5.63-.68-4.69,2.57-9.03,7.25-9.71.42-.05.81-.1,1.23-.1,4.19,0,7.85,3.09,8.48,7.33.31,2.28-.24,4.53-1.62,6.36Z"/>
    <g>
      <polygon class="st0" points="64.34 55.85 63.22 55.18 67.41 48.2 68.53 48.87 64.34 55.85"/>
      <polygon class="st0" points="67.72 56.33 66.6 55.66 69.65 50.56 70.78 51.24 67.72 56.33"/>
    </g>
    <g>
      <polygon class="st0" points="113.19 53.11 112.07 52.44 116.25 45.46 117.38 46.13 113.19 53.11"/>
      <polygon class="st0" points="116.57 53.59 115.44 52.92 118.5 47.83 119.63 48.5 116.57 53.59"/>
    </g>
  </g>
</svg>