<?xml version="1.0" encoding="UTF-8"?>
<svg id="Camada_1" xmlns="http://www.w3.org/2000/svg" version="1.1" viewBox="0 0 194.33 299.22">
  <!-- Generator: Adobe Illustrator 29.5.1, SVG Export Plug-In . SVG Version: 2.1.0 Build 141)  -->
  <defs>
    <style>
      .st0 {
        fill: #f4baeb;
        opacity: .46;
      }

      .st1 {
        fill: #fff;
      }

      .st2 {
        fill: #ffe3c4;
      }

      .st3 {
        fill: #cc2020;
      }

      .st4 {
        fill: #ef4b4b;
      }
    </style>
  </defs>
  <g>
    <circle cx="128.75" cy="31.84" r="25.13"/>
    <circle class="st4" cx="128.75" cy="32.22" r="22.04"/>
  </g>
  <g>
    <path class="st4" d="M93.44,283.97c.19,0,.37,0,.56,0,28.37,0,57-9.57,61.46-20.6,8.71-21.51-10.66-91.66-16.47-101.34-.35-.58-.16-1.33.42-1.67.57-.35,1.33-.16,1.67.42,3.34,5.57,10.81,29.48,15.33,53.64,5.5-.77,11.45-2.37,14.98-7.78,4.32-6.64,4.13-18.09-.59-34.03-7.32-24.73-26.29-42.25-37.45-50.79-9.55,8.14-21.92,13.07-35.42,13.07s-26.39-5.14-36.02-13.58c-11.05,8.34-30.67,26.06-38.14,51.3-4.71,15.93-4.91,27.38-.59,34.03,3.6,5.54,9.75,7.08,15.35,7.83.87-5.84,2.05-12,3.57-18.49,5.01-21.38,11.88-38.49,11.95-38.65.26-.62.97-.92,1.59-.67.62.25.93.97.67,1.59-.27.67-27.06,67.74-12.93,103.59,5.51,13.95,23.74,22.03,50.03,22.14Z"/>
    <path d="M93.42,286.41c.18,0,.36,0,.53,0,26.57,0,58.38-8.83,63.77-22.13,3.96-9.78,2.53-28.52-.86-47.47,5.72-.82,12.54-2.63,16.58-8.85,4.8-7.37,4.7-19.17-.29-36.05-7.42-25.08-26.46-42.89-37.94-51.74,10.71-9.99,17.43-24.22,17.43-39.99,0-30.16-24.54-54.7-54.7-54.7s-54.7,24.54-54.7,54.7c0,15.49,6.48,29.48,16.86,39.45-11.39,8.66-31.08,26.68-38.65,52.29-4.99,16.89-5.09,28.68-.29,36.05,4.15,6.38,11.24,8.13,17.05,8.92-2.57,18.97-1.6,34.34,2.94,45.84,5.89,14.93,24.95,23.57,52.29,23.69ZM56.33,158.23c.25-.62-.05-1.34-.67-1.59-.62-.25-1.33.05-1.59.67-.07.17-6.95,17.28-11.95,38.65-1.52,6.5-2.7,12.65-3.57,18.49-5.6-.75-11.75-2.3-15.35-7.83-4.32-6.64-4.12-18.09.59-34.03,7.47-25.25,27.08-42.97,38.14-51.3,9.63,8.45,22.23,13.58,36.02,13.58s25.87-4.93,35.42-13.07c11.16,8.54,30.14,26.05,37.45,50.79,4.71,15.93,4.91,27.38.59,34.03-3.52,5.41-9.48,7.01-14.98,7.78-4.52-24.16-11.99-48.07-15.33-53.64-.35-.58-1.1-.77-1.67-.42-.58.35-.77,1.1-.42,1.67,5.81,9.68,25.18,79.83,16.47,101.34-4.46,11.03-33.1,20.6-61.46,20.6-.19,0-.37,0-.56,0-26.29-.12-44.53-8.19-50.03-22.14-14.14-35.85,12.66-102.92,12.93-103.59ZM45.67,80.18c0-28.82,23.44-52.26,52.26-52.26s52.26,23.44,52.26,52.26-23.44,52.26-52.26,52.26-52.26-23.44-52.26-52.26Z"/>
    <path class="st4" d="M97.93,132.44c28.82,0,52.26-23.44,52.26-52.26s-23.44-52.26-52.26-52.26-52.26,23.44-52.26,52.26,23.44,52.26,52.26,52.26Z"/>
    <path class="st3" d="M77.23,108.57c-26.97-26.15-19.96-53.7-13.11-68.17-11.27,9.59-18.45,23.85-18.45,39.78,0,28.82,23.44,52.26,52.26,52.26,18.29,0,34.38-9.46,43.72-23.72-20.78,11.57-45.68,18.02-64.43-.16Z"/>
    <path class="st3" d="M70.74,230.03c-7.7-41.65,6.85-80.85,14.02-96.81-8.59-2.14-16.39-6.26-22.85-11.92-2.43,1.83-5.28,4.14-8.31,6.86,5.14,2.6,7.33,8.14.63,16.38-10.76,13.25-20.65,47.7-25.59,67.06,3.07,1.68,6.57,2.42,9.9,2.87.87-5.84,2.05-12,3.57-18.49,5.01-21.38,11.88-38.49,11.95-38.65.26-.62.97-.92,1.59-.67.62.25.93.97.67,1.59-.27.67-27.06,67.74-12.93,103.59,5.51,13.95,23.74,22.03,50.03,22.14.19,0,.37,0,.56,0,19.28,0,38.68-4.43,50.53-10.72-31.53,3.4-67.19-7.54-73.78-43.21Z"/>
    <path class="st3" d="M139.14,160.46s.04.06.06.08c.07-.06.12-.14.21-.19.57-.35,1.33-.16,1.67.42,3.34,5.57,10.81,29.48,15.33,53.64,4.45-.62,9.17-1.82,12.69-5.11-19.44-60-38.7-59.14-29.96-48.84Z"/>
    <path class="st1" d="M147.44,96.8c1.76-5.23,2.76-10.81,2.76-16.62,0-28.82-23.44-52.26-52.26-52.26-7.8,0-15.19,1.77-21.84,4.85,13.57-1.52,35.48-1.65,51.26,9.76,18.42,13.31,21.8,37.48,20.09,54.28Z"/>
    <path class="st2" d="M23.78,172.6c-4.71,15.93-4.91,27.38-.59,34.03.15.23.32.41.48.62-.82-4.85-1.05-11.49.49-20.26,2.45-13.94,12.47-35.19,19.39-48.75-7.97,9-15.69,20.54-19.78,34.36Z"/>
    <g>
      <path class="st1" d="M170.85,207.34c.18-.24.38-.45.54-.71,4.32-6.64,4.13-18.09-.59-34.03-7.32-24.73-26.29-42.25-37.45-50.79,0,0,25.54,26.26,34.09,50.73,5.74,16.42,4.7,28.56,3.4,34.79Z"/>
      <path class="st1" d="M155.46,263.36c8.38-20.7-9.24-86.42-15.75-99.97-.44-.85-.72-1.37-.72-1.37,0,0,14.9,60.35,15.19,81.57.16,11.62-2.06,20.48-4.11,26.14,2.63-2.02,4.49-4.16,5.39-6.37Z"/>
    </g>
  </g>
  <g>
    <path d="M131.08,67.02c-1.04-7.09-7.68-12.01-14.78-11-5.44.79-9.64,4.89-10.8,9.98-6.25-2.03-14.95-.89-19.82.79-2.2-5.46-7.93-8.92-13.99-8.03-7.12,1.04-12.03,7.66-11,14.75.49,3.46,2.3,6.5,5.09,8.57,2.27,1.68,4.97,2.57,7.76,2.57.64,0,1.26-.02,1.9-.12,6.45-.94,11.14-6.5,11.17-12.82,3.56-1.48,13.64-3.06,18.76-.47.59,3.26,2.37,6.13,5.04,8.11,2.27,1.71,4.97,2.59,7.73,2.59.64,0,1.28-.05,1.93-.15,6.45-.94,11.14-6.52,11.14-12.87,0-.64-.05-1.26-.15-1.9ZM80.05,76.49c-1.28,1.73-3.16,2.84-5.31,3.16-2.13.32-4.25-.22-5.98-1.51-1.73-1.31-2.87-3.19-3.19-5.34-.64-4.4,2.42-8.5,6.84-9.17.4-.05.79-.07,1.16-.07,1.98,0,3.83.72,5.26,1.95s2.45,2.97,2.74,4.97c.3,2.13-.22,4.27-1.53,6ZM124.68,73.74c-1.28,1.73-3.19,2.87-5.31,3.16-2.13.32-4.28-.22-6-1.51-1.73-1.28-2.84-3.19-3.16-5.31-.64-4.42,2.42-8.53,6.82-9.17.4-.05.79-.1,1.19-.1,1.98,0,3.81.74,5.24,1.95,1.43,1.24,2.47,2.97,2.74,4.97.32,2.15-.22,4.27-1.51,6Z"/>
    <g>
      <polygon class="st1" points="69.59 74.07 68.53 73.43 72.48 66.84 73.54 67.48 69.59 74.07"/>
      <polygon class="st1" points="72.78 74.52 71.72 73.89 74.6 69.08 75.66 69.71 72.78 74.52"/>
    </g>
    <g>
      <polygon class="st1" points="115.7 71.48 114.64 70.85 118.59 64.25 119.65 64.89 115.7 71.48"/>
      <polygon class="st1" points="118.89 71.94 117.82 71.3 120.71 66.49 121.77 67.13 118.89 71.94"/>
    </g>
  </g>
  <circle class="st0" cx="119.8" cy="91.8" r="9.6"/>
  <circle class="st0" cx="76.09" cy="94.12" r="9.26"/>
  <path d="M97.03,108.73h-.01c-5.26,0-10.07-4.07-15.14-12.8l4.28-2.48c3.98,6.86,7.64,10.33,10.87,10.34h0c3.34,0,7.17-3.67,11.4-10.9l4.27,2.49c-5.32,9.11-10.3,13.36-15.66,13.36Z"/>
</svg>